<svg width="203" height="175" viewBox="0 0 203 175" fill="none" xmlns="http://www.w3.org/2000/svg">
<g clip-path="url(#clip0_20_241)">
<path d="M199.853 137.714L106.45 169.439C105.287 169.833 104.015 169.747 102.915 169.2C101.815 168.652 100.976 167.689 100.582 166.521L57.3165 37.8678C56.9249 36.6988 57.0106 35.4213 57.5549 34.3158C58.0992 33.2102 59.0577 32.3668 60.22 31.9705L153.623 0.24524C154.786 -0.148389 156.057 -0.0622365 157.157 0.484793C158.257 1.03182 159.096 1.99506 159.491 3.16317L202.756 131.817C203.148 132.986 203.062 134.263 202.518 135.369C201.973 136.474 201.015 137.318 199.853 137.714V137.714Z" fill="#E6E6E6"/>
<path d="M197.468 135.338L106.91 166.097C106.124 166.363 105.266 166.305 104.522 165.935C103.779 165.566 103.212 164.915 102.946 164.125L60.6418 38.331C60.3771 37.5412 60.435 36.6781 60.8028 35.9311C61.1706 35.1841 61.8182 34.6142 62.6035 34.3464L153.162 3.5874C153.948 3.32143 154.806 3.37964 155.55 3.74926C156.293 4.11887 156.86 4.76971 157.126 5.55897L199.43 131.353C199.695 132.143 199.637 133.006 199.269 133.753C198.901 134.5 198.254 135.07 197.468 135.338V135.338Z" fill="white"/>
<path d="M174.703 174.623H76.1103C74.883 174.621 73.7063 174.131 72.8384 173.259C71.9705 172.386 71.4823 171.204 71.481 169.97V34.1679C71.4823 32.9344 71.9705 31.7518 72.8384 30.8796C73.7063 30.0074 74.883 29.5168 76.1103 29.5154H174.703C175.931 29.5168 177.108 30.0074 177.975 30.8796C178.843 31.7518 179.331 32.9344 179.333 34.1679V169.97C179.331 171.204 178.843 172.386 177.975 173.259C177.108 174.131 175.931 174.621 174.703 174.623V174.623Z" fill="#CCCCCC"/>
<path d="M173.202 171.605H77.6118C76.7825 171.604 75.9875 171.273 75.4011 170.683C74.8147 170.094 74.4848 169.295 74.4839 168.461V35.6768C74.4848 34.8433 74.8147 34.0443 75.4011 33.455C75.9875 32.8656 76.7825 32.5341 77.6118 32.5332H173.202C174.031 32.5341 174.826 32.8656 175.413 33.455C175.999 34.0443 176.329 34.8433 176.33 35.6768V168.461C176.329 169.295 175.999 170.094 175.413 170.683C174.826 171.273 174.031 171.604 173.202 171.605V171.605Z" fill="white"/>
<path d="M152.838 70.1998H89.7032C89.1713 70.1998 88.6612 69.9875 88.2851 69.6095C87.909 69.2315 87.6978 68.7189 87.6978 68.1844C87.6978 67.6499 87.909 67.1372 88.2851 66.7592C88.6612 66.3813 89.1713 66.1689 89.7032 66.1689H152.838C153.37 66.1689 153.88 66.3813 154.256 66.7592C154.632 67.1372 154.844 67.6499 154.844 68.1844C154.844 68.7189 154.632 69.2315 154.256 69.6095C153.88 69.9875 153.37 70.1998 152.838 70.1998Z" fill="#CCCCCC"/>
<path d="M161.111 77.0021H89.7032C89.4398 77.0021 89.179 76.9499 88.9357 76.8487C88.6924 76.7474 88.4714 76.5989 88.2851 76.4118C88.0989 76.2246 87.9512 76.0024 87.8504 75.7579C87.7496 75.5134 87.6978 75.2513 87.6978 74.9866C87.6978 74.722 87.7496 74.4599 87.8504 74.2154C87.9512 73.9708 88.0989 73.7486 88.2851 73.5615C88.4714 73.3743 88.6924 73.2259 88.9357 73.1246C89.179 73.0233 89.4398 72.9712 89.7032 72.9712H161.111C161.642 72.9712 162.153 73.1835 162.529 73.5615C162.905 73.9395 163.116 74.4521 163.116 74.9866C163.116 75.5212 162.905 76.0338 162.529 76.4118C162.153 76.7897 161.642 77.0021 161.111 77.0021V77.0021Z" fill="#CCCCCC"/>
<path d="M152.838 100.683H89.7029C89.1714 100.683 88.6619 100.47 88.2863 100.092C87.9107 99.7145 87.6997 99.2022 87.6997 98.668C87.6997 98.1339 87.9107 97.6216 88.2863 97.2437C88.6619 96.8658 89.1714 96.6532 89.7029 96.6526H152.838C153.37 96.6526 153.88 96.8649 154.256 97.2429C154.632 97.6209 154.843 98.1335 154.843 98.668C154.843 99.2026 154.632 99.7152 154.256 100.093C153.88 100.471 153.37 100.683 152.838 100.683Z" fill="#0E71BA"/>
<path d="M161.11 107.485H89.7029C89.1714 107.485 88.6619 107.272 88.2863 106.894C87.9107 106.516 87.6997 106.004 87.6997 105.47C87.6997 104.936 87.9107 104.424 88.2863 104.046C88.6619 103.668 89.1714 103.455 89.7029 103.455H161.11C161.642 103.455 162.152 103.667 162.528 104.045C162.904 104.423 163.116 104.935 163.116 105.47C163.116 106.005 162.904 106.517 162.528 106.895C162.152 107.273 161.642 107.485 161.11 107.485V107.485Z" fill="#CCCCCC"/>
<path d="M152.838 131.167H89.7029C89.1714 131.166 88.6619 130.954 88.2863 130.576C87.9107 130.198 87.6997 129.686 87.6997 129.151C87.6997 128.617 87.9107 128.105 88.2863 127.727C88.6619 127.349 89.1714 127.137 89.7029 127.136H152.838C153.37 127.136 153.88 127.348 154.256 127.726C154.632 128.104 154.843 128.617 154.843 129.151C154.843 129.686 154.632 130.199 154.256 130.577C153.88 130.955 153.37 131.167 152.838 131.167Z" fill="#CCCCCC"/>
<path d="M161.111 137.969H89.7032C89.1713 137.969 88.6612 137.757 88.2851 137.379C87.909 137.001 87.6978 136.488 87.6978 135.954C87.6978 135.419 87.909 134.907 88.2851 134.529C88.6612 134.151 89.1713 133.938 89.7032 133.938H161.111C161.642 133.938 162.153 134.151 162.529 134.529C162.905 134.907 163.116 135.419 163.116 135.954C163.116 136.488 162.905 137.001 162.529 137.379C162.153 137.757 161.642 137.969 161.111 137.969V137.969Z" fill="#CCCCCC"/>
<path d="M51.1715 93.2076H36.6578C36.3593 93.2073 36.073 93.088 35.8619 92.8758C35.6508 92.6636 35.5321 92.376 35.5317 92.076V85.7888C35.5317 83.5544 36.4149 81.4115 37.987 79.8316C39.5591 78.2516 41.6914 77.364 43.9147 77.364C46.1379 77.364 48.2702 78.2516 49.8423 79.8316C51.4144 81.4115 52.2976 83.5544 52.2976 85.7888V92.076C52.2972 92.376 52.1785 92.6636 51.9674 92.8758C51.7563 93.088 51.4701 93.2073 51.1715 93.2076Z" fill="#2F2E41"/>
<path d="M73.572 126.019C73.2047 126 72.846 125.9 72.5212 125.726C72.1965 125.553 71.9135 125.31 71.6924 125.014C71.4712 124.719 71.3172 124.378 71.2412 124.017C71.1652 123.655 71.169 123.281 71.2524 122.921L63.689 118.126L67.9222 116.2L74.4556 121.048C75.0482 121.229 75.5542 121.622 75.8777 122.153C76.2012 122.684 76.3197 123.316 76.2108 123.928C76.1019 124.541 75.7731 125.092 75.2868 125.478C74.8005 125.863 74.1903 126.056 73.572 126.019V126.019Z" fill="#FFB8B8"/>
<path d="M68.3527 122.108C68.0955 122.084 67.8506 121.986 67.647 121.827L46.84 105.618L44.1572 100.823C43.8977 100.362 43.7812 99.833 43.8226 99.3048C43.864 98.7765 44.0615 98.2727 44.3896 97.858V97.858C44.6167 97.5696 44.9007 97.3315 45.2236 97.1586C45.5466 96.9857 45.9017 96.8818 46.2665 96.8533C46.6313 96.8247 46.9981 96.8723 47.3438 96.9929C47.6895 97.1136 48.0066 97.3047 48.2754 97.5543L71.4673 116.458C71.6173 116.56 71.7456 116.691 71.8445 116.844C71.9435 116.996 72.0111 117.167 72.0435 117.346C72.0759 117.525 72.0724 117.709 72.0331 117.886C71.9939 118.064 71.9198 118.232 71.815 118.38L69.5916 121.536C69.486 121.687 69.3507 121.815 69.1942 121.912C69.0377 122.008 68.8631 122.072 68.6813 122.098C68.5725 122.115 68.4622 122.118 68.3527 122.108V122.108Z" fill="#2F2E41"/>
<path d="M19.3169 168.514L22.1608 169.671L27.9526 159.197L23.7553 157.49L19.3169 168.514Z" fill="#FFB8B8"/>
<path d="M18.9672 167.286L24.5677 169.564L24.568 169.564C25.0367 169.754 25.4634 170.036 25.8239 170.392C26.1843 170.749 26.4714 171.173 26.6687 171.641C26.866 172.109 26.9697 172.611 26.9738 173.119C26.9779 173.627 26.8824 174.131 26.6927 174.602L26.6458 174.719L17.4761 170.99L18.9672 167.286Z" fill="#2F2E41"/>
<path d="M52.4541 171.73L55.522 171.73L56.9816 159.838L52.4536 159.838L52.4541 171.73Z" fill="#FFB8B8"/>
<path d="M51.6719 170.723L57.7135 170.723H57.7138C58.2194 170.723 58.7201 170.823 59.1872 171.018C59.6544 171.212 60.0788 171.497 60.4363 171.856C60.7939 172.216 61.0775 172.642 61.271 173.112C61.4645 173.581 61.564 174.084 61.564 174.593V174.718L51.6721 174.719L51.6719 170.723Z" fill="#2F2E41"/>
<path d="M54.9817 165.007C53.7633 165.007 52.5684 164.508 51.909 164.176C51.7381 164.091 51.5889 163.967 51.473 163.815C51.3571 163.663 51.2777 163.486 51.2407 163.298L44.7743 130.533L27.9984 162.077C27.8476 162.361 27.5941 162.576 27.2902 162.677C23.6771 163.89 21.7066 161.981 21.027 161.104C20.8887 160.925 20.8025 160.71 20.7778 160.484C20.7532 160.258 20.7911 160.029 20.8873 159.824L28.6568 142.861L33.3547 126.747L38.1032 114.955L38.2069 114.966L54.0854 116.646L56.0162 127.318L57.9607 162.851C57.978 163.134 57.8978 163.415 57.7334 163.646C57.4225 164.084 57.0084 164.437 56.5282 164.675C56.048 164.912 55.5166 165.026 54.9817 165.007V165.007Z" fill="#2F2E41"/>
<path d="M45.9835 93.1121C49.3778 93.1121 52.1295 90.3466 52.1295 86.9353C52.1295 83.524 49.3778 80.7585 45.9835 80.7585C42.5891 80.7585 39.8374 83.524 39.8374 86.9353C39.8374 90.3466 42.5891 93.1121 45.9835 93.1121Z" fill="#FFB8B8"/>
<path d="M48.121 121.551C45.4452 121.551 42.1345 119.978 38.2464 116.851L38.1802 116.798L40.9292 95.0032L41.0575 94.9984C44.9895 94.8556 48.1893 95.859 50.8386 98.0732L50.8613 98.097L53.0094 100.873L53.0104 100.923L53.3133 117.971L53.3056 117.995C53.0211 118.775 52.562 119.479 51.9639 120.053C51.3658 120.627 50.6445 121.055 49.8558 121.304C49.2927 121.472 48.7082 121.555 48.121 121.551V121.551Z" fill="#0E71BA"/>
<path d="M52.0784 131.741C51.778 131.74 51.4862 131.64 51.2481 131.456C51.01 131.272 50.8389 131.014 50.7612 130.722L46.9875 116.365L44.5968 129.445C44.5341 129.792 44.3401 130.102 44.0554 130.308C43.7708 130.515 43.4177 130.602 43.0701 130.553L32.6603 129.093C32.4619 129.065 32.272 128.994 32.1042 128.884C31.9365 128.774 31.795 128.628 31.6898 128.456C31.5847 128.285 31.5185 128.092 31.4959 127.892C31.4734 127.692 31.4951 127.49 31.5595 127.299L36.8252 111.702L35.6464 102.563C35.525 101.622 35.5997 100.666 35.8657 99.7555C36.1318 98.8451 36.5833 98.0002 37.1916 97.2745C37.7999 96.5488 38.5518 95.9582 39.3994 95.5402C40.247 95.1222 41.1719 94.886 42.1152 94.8464L42.2208 94.8423L47.2278 106.978L48.0241 103.777L49.2703 96.8864L49.4564 96.9947C51.2158 98.0142 52.6626 99.5 53.6385 101.29C54.6144 103.08 55.082 105.105 54.9901 107.144L54.6744 114.442L57.4719 129.343C57.5381 129.699 57.4614 130.066 57.2585 130.366C57.0556 130.665 56.743 130.872 56.389 130.94L52.3318 131.716C52.2483 131.733 52.1634 131.741 52.0784 131.741Z" fill="#2F2E41"/>
<path d="M54.2808 86.4176H45.406L45.315 85.137L44.86 86.4176H43.4935L43.3131 83.8796L42.4113 86.4176H39.7671V86.2918C39.7691 84.5249 40.4683 82.831 41.7115 81.5816C42.9547 80.3322 44.6402 79.6294 46.3983 79.6274H47.6495C49.4076 79.6294 51.0932 80.3322 52.3363 81.5816C53.5795 82.831 54.2788 84.5249 54.2808 86.2918V86.4176Z" fill="#2F2E41"/>
<path d="M199.438 175H0.250236C0.18387 175 0.120221 174.974 0.0732923 174.926C0.0263639 174.879 0 174.815 0 174.749C0 174.682 0.0263639 174.618 0.0732923 174.571C0.120221 174.524 0.18387 174.497 0.250236 174.497H199.438C199.505 174.497 199.568 174.524 199.615 174.571C199.662 174.618 199.689 174.682 199.689 174.749C199.689 174.815 199.662 174.879 199.615 174.926C199.568 174.974 199.505 175 199.438 175Z" fill="#CCCCCC"/>
<path d="M48.334 124.757C48.3336 125.16 48.4195 125.559 48.5858 125.926C48.7521 126.293 48.9951 126.62 49.2981 126.885C49.6011 127.149 49.9572 127.345 50.3422 127.459C50.7272 127.573 51.1321 127.603 51.5294 127.546C51.8961 128.392 52.5004 129.111 53.2681 129.617C54.0359 130.122 54.9338 130.391 55.8516 130.391V130.391C56.4707 130.391 57.0837 130.269 57.6557 130.031C58.2277 129.793 58.7474 129.444 59.1852 129.004C59.623 128.564 59.9702 128.041 60.2072 127.467C60.4441 126.892 60.566 126.276 60.566 125.653V121.548C60.566 120.492 59.7137 120.138 58.6623 120.138H53.0409C51.9895 120.138 51.1372 120.492 51.1372 121.548V121.94C50.394 121.941 49.6815 122.238 49.1559 122.766C48.6304 123.294 48.3348 124.01 48.334 124.757V124.757ZM49.0985 124.757C49.0991 124.214 49.3141 123.693 49.6963 123.309C50.0785 122.925 50.5967 122.709 51.1372 122.708V125.653C51.1372 126.04 51.184 126.424 51.2767 126.799C51.2304 126.802 51.1843 126.806 51.1372 126.806C50.5967 126.805 50.0785 126.589 49.6963 126.205C49.3141 125.821 49.0991 125.3 49.0985 124.757H49.0985Z" fill="#0E71BA"/>
<path d="M50.5916 124.08C50.4206 123.752 50.1803 123.467 49.8876 123.243C49.5948 123.019 49.2568 122.862 48.8973 122.784C48.5378 122.705 48.1656 122.707 47.8068 122.789C47.4481 122.871 47.1115 123.031 46.8209 123.257L39.3257 118.356L39.3543 123.026L46.4675 126.964C46.8787 127.43 47.4456 127.727 48.0606 127.801C48.6756 127.874 49.2961 127.718 49.8045 127.363C50.3128 127.007 50.6737 126.477 50.8188 125.872C50.9639 125.266 50.8831 124.629 50.5916 124.08H50.5916Z" fill="#FFB8B8"/>
<path d="M42.4755 126.93C42.1768 126.93 41.8904 126.811 41.6792 126.599L32.1352 117.007C31.8302 116.702 31.6077 116.325 31.4887 115.91C31.3698 115.494 31.3583 115.056 31.4553 114.635C32.2722 111.045 34.263 102.469 35.1035 100.357C35.7169 98.7693 36.8524 97.44 38.3213 96.5902L38.3588 96.5713L41.3803 97.1324L41.6466 106.499L37.9967 114.359L45.7575 121.722C45.9617 121.914 46.087 122.176 46.1086 122.457C46.1303 122.737 46.0468 123.016 45.8746 123.238L43.3655 126.492C43.2676 126.619 43.1439 126.723 43.0026 126.798C42.8614 126.874 42.7058 126.918 42.5463 126.928C42.5227 126.929 42.499 126.93 42.4755 126.93Z" fill="#2F2E41"/>
<path d="M55.8412 121.433C57.776 121.433 59.3445 121.208 59.3445 120.93C59.3445 120.653 57.776 120.427 55.8412 120.427C53.9064 120.427 52.3379 120.653 52.3379 120.93C52.3379 121.208 53.9064 121.433 55.8412 121.433Z" fill="#2F2E41"/>
</g>
<defs>
<clipPath id="clip0_20_241">
<rect width="203" height="175" fill="white"/>
</clipPath>
</defs>
</svg>
