<svg width="256" height="147" viewBox="0 0 256 147" fill="none" xmlns="http://www.w3.org/2000/svg">
<g clip-path="url(#clip0_20_136)">
<path d="M131.94 4.19602C133.099 4.19602 134.038 3.25671 134.038 2.09801C134.038 0.93931 133.099 0 131.94 0C130.781 0 129.842 0.93931 129.842 2.09801C129.842 3.25671 130.781 4.19602 131.94 4.19602Z" fill="#F2F2F2"/>
<path d="M131.94 12.5576C133.099 12.5576 134.038 11.6183 134.038 10.4596C134.038 9.30088 133.099 8.36157 131.94 8.36157C130.781 8.36157 129.842 9.30088 129.842 10.4596C129.842 11.6183 130.781 12.5576 131.94 12.5576Z" fill="#F2F2F2"/>
<path d="M140.7 4.19602C141.858 4.19602 142.798 3.25671 142.798 2.09801C142.798 0.93931 141.858 0 140.7 0C139.541 0 138.602 0.93931 138.602 2.09801C138.602 3.25671 139.541 4.19602 140.7 4.19602Z" fill="#F2F2F2"/>
<path d="M140.7 12.5576C141.858 12.5576 142.798 11.6183 142.798 10.4596C142.798 9.30088 141.858 8.36157 140.7 8.36157C139.541 8.36157 138.602 9.30088 138.602 10.4596C138.602 11.6183 139.541 12.5576 140.7 12.5576Z" fill="#F2F2F2"/>
<path d="M149.459 4.19602C150.618 4.19602 151.557 3.25671 151.557 2.09801C151.557 0.93931 150.618 0 149.459 0C148.3 0 147.361 0.93931 147.361 2.09801C147.361 3.25671 148.3 4.19602 149.459 4.19602Z" fill="#F2F2F2"/>
<path d="M149.459 12.5576C150.618 12.5576 151.557 11.6183 151.557 10.4596C151.557 9.30088 150.618 8.36157 149.459 8.36157C148.3 8.36157 147.361 9.30088 147.361 10.4596C147.361 11.6183 148.3 12.5576 149.459 12.5576Z" fill="#F2F2F2"/>
<path d="M149.459 20.9189C150.618 20.9189 151.557 19.9796 151.557 18.8209C151.557 17.6622 150.618 16.7229 149.459 16.7229C148.3 16.7229 147.361 17.6622 147.361 18.8209C147.361 19.9796 148.3 20.9189 149.459 20.9189Z" fill="#F2F2F2"/>
<path d="M149.459 29.2805C150.618 29.2805 151.557 28.3412 151.557 27.1825C151.557 26.0238 150.618 25.0845 149.459 25.0845C148.3 25.0845 147.361 26.0238 147.361 27.1825C147.361 28.3412 148.3 29.2805 149.459 29.2805Z" fill="#F2F2F2"/>
<path d="M158.218 4.19602C159.377 4.19602 160.316 3.25671 160.316 2.09801C160.316 0.93931 159.377 0 158.218 0C157.059 0 156.12 0.93931 156.12 2.09801C156.12 3.25671 157.059 4.19602 158.218 4.19602Z" fill="#F2F2F2"/>
<path d="M158.218 12.5576C159.377 12.5576 160.316 11.6183 160.316 10.4596C160.316 9.30088 159.377 8.36157 158.218 8.36157C157.059 8.36157 156.12 9.30088 156.12 10.4596C156.12 11.6183 157.059 12.5576 158.218 12.5576Z" fill="#F2F2F2"/>
<path d="M158.218 20.9189C159.377 20.9189 160.316 19.9796 160.316 18.8209C160.316 17.6622 159.377 16.7229 158.218 16.7229C157.059 16.7229 156.12 17.6622 156.12 18.8209C156.12 19.9796 157.059 20.9189 158.218 20.9189Z" fill="#F2F2F2"/>
<path d="M158.218 29.2805C159.377 29.2805 160.316 28.3412 160.316 27.1825C160.316 26.0238 159.377 25.0845 158.218 25.0845C157.059 25.0845 156.12 26.0238 156.12 27.1825C156.12 28.3412 157.059 29.2805 158.218 29.2805Z" fill="#F2F2F2"/>
<path d="M166.978 4.19602C168.137 4.19602 169.076 3.25671 169.076 2.09801C169.076 0.93931 168.137 0 166.978 0C165.819 0 164.88 0.93931 164.88 2.09801C164.88 3.25671 165.819 4.19602 166.978 4.19602Z" fill="#F2F2F2"/>
<path d="M166.978 12.5576C168.137 12.5576 169.076 11.6183 169.076 10.4596C169.076 9.30088 168.137 8.36157 166.978 8.36157C165.819 8.36157 164.88 9.30088 164.88 10.4596C164.88 11.6183 165.819 12.5576 166.978 12.5576Z" fill="#F2F2F2"/>
<path d="M175.737 4.19602C176.896 4.19602 177.835 3.25671 177.835 2.09801C177.835 0.93931 176.896 0 175.737 0C174.578 0 173.639 0.93931 173.639 2.09801C173.639 3.25671 174.578 4.19602 175.737 4.19602Z" fill="#F2F2F2"/>
<path d="M175.737 12.5576C176.896 12.5576 177.835 11.6183 177.835 10.4596C177.835 9.30088 176.896 8.36157 175.737 8.36157C174.578 8.36157 173.639 9.30088 173.639 10.4596C173.639 11.6183 174.578 12.5576 175.737 12.5576Z" fill="#F2F2F2"/>
<path d="M239.786 110.712H224.21C224.21 111.16 208.158 111.523 208.158 111.523C207.906 111.713 207.676 111.931 207.473 112.172C206.863 112.899 206.53 113.818 206.532 114.767V115.416C206.533 116.492 206.96 117.523 207.72 118.283C208.481 119.044 209.512 119.471 210.588 119.472H239.786C240.861 119.471 241.892 119.043 242.652 118.283C243.412 117.522 243.84 116.492 243.841 115.416V114.767C243.839 113.692 243.412 112.662 242.651 111.902C241.891 111.141 240.861 110.714 239.786 110.712Z" fill="#3F3D56"/>
<path d="M227.456 119.31H223.239V146.562H227.456V119.31Z" fill="#3F3D56"/>
<path d="M239.46 146.414C239.46 146.87 233.069 146.59 225.185 146.59C217.302 146.59 210.911 146.87 210.911 146.414C210.911 145.958 217.302 142.344 225.185 142.344C233.069 142.344 239.46 145.958 239.46 146.414Z" fill="#3F3D56"/>
<path d="M204.094 142.829L200.117 142.829L198.225 127.488L204.095 127.488L204.094 142.829Z" fill="#FFB8B8"/>
<path d="M197.276 141.693H204.947V146.523H192.446C192.446 145.242 192.955 144.013 193.861 143.107C194.767 142.202 195.995 141.693 197.276 141.693Z" fill="#2F2E41"/>
<path d="M197.886 140.609L194.091 139.418L196.878 124.214L202.479 125.972L197.886 140.609Z" fill="#FFB8B8"/>
<path d="M191.72 137.484L199.039 139.78L197.593 144.388L185.666 140.646C185.856 140.041 186.163 139.479 186.57 138.992C186.977 138.506 187.476 138.104 188.038 137.811C188.601 137.517 189.215 137.337 189.847 137.281C190.479 137.225 191.115 137.294 191.72 137.484Z" fill="#2F2E41"/>
<path d="M229.134 108.053C229.042 107.28 228.877 106.517 228.641 105.775L227.898 104.841L225.964 102.414L225.88 102.418C225.737 102.424 225.143 102.456 224.225 102.528H224.216C223.648 102.573 222.953 102.632 222.165 102.706C221.958 102.729 221.74 102.748 221.516 102.771V106.158H225.572C225.769 106.158 225.959 106.23 226.107 106.36C226.255 106.491 226.351 106.67 226.376 106.865C226.379 106.901 226.383 106.934 226.383 106.969C226.383 107.184 226.297 107.391 226.145 107.543C225.993 107.695 225.787 107.78 225.572 107.78H202.019C201.718 107.979 201.43 108.196 201.155 108.429C200.326 109.071 199.728 109.967 199.452 110.979C198.077 117.026 195.569 128.303 194.829 131.616C194.776 131.865 194.788 132.124 194.865 132.368C194.941 132.611 195.08 132.831 195.267 133.004C195.405 133.133 195.567 133.233 195.744 133.299L198.671 134.396C198.791 134.44 198.916 134.47 199.044 134.484C199.06 134.484 199.073 134.487 199.089 134.487C199.119 134.489 199.149 134.491 199.18 134.49C199.476 134.489 199.764 134.398 200.008 134.231C200.252 134.063 200.439 133.825 200.546 133.549L202.856 127.489L206.415 118.146L207.822 114.45C209.454 114.833 223.145 117.863 227.729 112.981C228.181 112.5 228.538 111.937 228.78 111.323C229.166 110.279 229.287 109.155 229.134 108.053Z" fill="#2F2E41"/>
<path d="M233.104 108.935C233.033 108.647 232.952 108.348 232.858 108.046L230.181 104.685L230.097 104.689C229.928 104.698 229.127 104.74 227.898 104.841C226.503 104.958 224.553 105.146 222.363 105.441C222.298 105.448 222.23 105.457 222.165 105.467C221.951 105.496 221.733 105.526 221.516 105.558V106.158H225.571C225.768 106.158 225.959 106.23 226.107 106.36C226.255 106.491 226.35 106.67 226.376 106.865C226.379 106.901 226.382 106.934 226.382 106.969C226.382 107.184 226.297 107.391 226.145 107.543C225.993 107.695 225.786 107.78 225.571 107.78H211.238C210.612 107.985 210.009 108.199 209.431 108.429C206.401 109.63 204.134 111.203 203.67 113.25C203.514 113.938 203.342 114.694 203.16 115.498C202.485 118.489 201.665 122.152 200.922 125.481V125.484C200.769 126.172 200.617 126.84 200.471 127.489C199.851 130.279 199.326 132.644 199.047 133.887C199.04 133.922 199.034 133.955 199.027 133.99V133.997C198.995 134.248 199.026 134.504 199.118 134.74L199.121 134.743V134.746C199.21 134.972 199.356 135.172 199.543 135.327C199.668 135.43 199.81 135.513 199.961 135.57L202.888 136.667C203.051 136.728 203.223 136.76 203.397 136.761C203.641 136.762 203.881 136.7 204.095 136.583C204.401 136.416 204.638 136.146 204.763 135.82L211.063 119.288L212.04 116.721C213.672 117.104 227.362 120.131 231.946 115.252C232.852 114.272 233.369 112.995 233.4 111.66C233.432 110.743 233.332 109.825 233.104 108.935Z" fill="#2F2E41"/>
<path d="M232.745 80.3145C232.693 80.2529 232.637 80.1913 232.579 80.1329C231.715 79.2245 230.648 78.5336 229.466 78.1169C228.283 77.7002 227.019 77.5694 225.776 77.7354C224.692 77.8778 223.618 78.0891 222.561 78.368C221.196 78.7191 219.945 79.4202 218.934 80.4021C218.146 81.1661 217.525 82.0854 217.112 83.1018C216.698 84.1182 216.5 85.2096 216.53 86.3066C216.543 86.7511 216.546 87.2053 216.54 87.666C216.54 87.8801 216.536 88.0974 216.533 88.3148H219.732C219.871 88.3144 220.009 88.3307 220.144 88.3635C220.534 88.4568 220.882 88.6787 221.131 88.9935C221.38 89.3083 221.516 89.6978 221.516 90.0991V105.191C221.734 105.253 221.951 105.315 222.165 105.379C222.233 105.402 222.298 105.422 222.363 105.441C222.438 105.464 222.512 105.487 222.584 105.509C223.242 105.714 223.886 105.93 224.514 106.158H225.572C225.769 106.158 225.959 106.23 226.107 106.36C226.255 106.49 226.351 106.67 226.376 106.865C226.597 106.953 226.811 107.04 227.022 107.128C227.771 107.44 228.482 107.751 229.134 108.053C230.013 108.455 230.795 108.838 231.45 109.172C231.656 109.277 231.884 109.332 232.115 109.334C232.419 109.333 232.714 109.235 232.959 109.055C233.009 109.018 233.058 108.978 233.105 108.935C233.278 108.772 233.409 108.57 233.487 108.345C233.564 108.12 233.586 107.879 233.549 107.644C233.214 105.096 233.116 102.522 233.257 99.9551C233.348 97.7977 233.543 95.5851 233.796 93.4472C233.932 92.289 234.084 91.1535 234.243 90.0602C234.396 89.0155 234.558 88.0131 234.717 87.0658C234.926 85.8645 234.856 84.6315 234.514 83.4612C234.172 82.2909 233.567 81.2145 232.745 80.3145Z" fill="#0E71BA"/>
<path d="M219.446 80.5807C219.28 80.5092 219.109 80.4496 218.934 80.4022C218.069 80.1694 217.15 80.2553 216.343 80.6443C215.537 81.0332 214.897 81.6992 214.541 82.5207L212.312 87.6661L212.033 88.3149H219.732C219.871 88.3145 220.009 88.3309 220.144 88.3636L220.403 87.7634L221.39 85.486C221.781 84.5777 221.797 83.5511 221.432 82.6314C221.068 81.7118 220.354 80.9743 219.446 80.5807Z" fill="#0E71BA"/>
<path d="M226.369 75.2022C230.769 75.2022 234.337 71.6347 234.337 67.234C234.337 62.8333 230.769 59.2659 226.369 59.2659C221.968 59.2659 218.4 62.8333 218.4 67.234C218.4 71.6347 221.968 75.2022 226.369 75.2022Z" fill="#FFB8B8"/>
<path d="M234.243 90.0603L229.695 90.1836L229.364 93.3792L229.289 94.1189L222.165 97.3177L221.516 97.6097V103.297L222.165 103.112L224.215 102.528H224.225L233.257 99.9552L233.361 99.926C234.091 99.7153 234.733 99.2747 235.192 98.6698C235.652 98.0648 235.904 97.3278 235.911 96.5682L235.933 92.7952L235.953 90.0149L234.243 90.0603Z" fill="#FFB8B8"/>
<path d="M235.723 83.7405C235.693 83.2514 235.567 82.773 235.352 82.3326C235.137 81.8923 234.837 81.4985 234.47 81.1739C233.729 80.5184 232.758 80.1842 231.77 80.2448C230.782 80.3055 229.859 80.756 229.203 81.4974C228.548 82.2387 228.213 83.2101 228.274 84.1979L228.77 92.2955C228.784 92.5086 228.844 92.7162 228.947 92.9034C229.049 93.0907 229.192 93.2531 229.364 93.3791C229.638 93.5835 229.977 93.6836 230.318 93.6613L233.796 93.4472L234.85 93.3823C235.042 93.3729 235.23 93.3246 235.403 93.2404C235.576 93.1562 235.73 93.0378 235.856 92.8924C235.884 92.8616 235.91 92.8291 235.934 92.7951C236.14 92.5191 236.241 92.1787 236.219 91.8348L235.723 83.7405Z" fill="#0E71BA"/>
<path d="M222.584 105.509H222.165V105.467C221.951 105.496 221.734 105.526 221.516 105.558V106.158H224.514C223.885 105.931 223.241 105.715 222.584 105.509ZM222.584 105.509H222.165V105.467C221.951 105.496 221.734 105.526 221.516 105.558V106.158H224.514C223.885 105.931 223.241 105.715 222.584 105.509ZM225.572 105.509H222.165V90.0992C222.164 89.5716 221.992 89.0587 221.674 88.6375C221.356 88.2163 220.911 87.9095 220.404 87.7634C220.186 87.6977 219.96 87.6649 219.732 87.666H190.858C190.213 87.6668 189.595 87.9234 189.139 88.3796C188.683 88.8357 188.426 89.4541 188.425 90.0992V105.996C188.426 106.641 188.682 107.26 189.138 107.716C189.594 108.172 190.213 108.429 190.858 108.429H225.572C225.931 108.429 226.278 108.296 226.545 108.056C226.813 107.816 226.982 107.485 227.022 107.128C227.028 107.075 227.032 107.022 227.032 106.969C227.031 106.582 226.877 106.211 226.603 105.938C226.33 105.664 225.959 105.51 225.572 105.509H225.572ZM226.383 106.969C226.383 107.184 226.297 107.391 226.145 107.543C225.993 107.695 225.787 107.78 225.572 107.78H190.858C190.385 107.78 189.932 107.592 189.597 107.257C189.263 106.923 189.074 106.469 189.074 105.996V90.0992C189.074 89.6261 189.263 89.1724 189.597 88.8378C189.932 88.5033 190.385 88.3152 190.858 88.3149H219.732C219.871 88.3145 220.009 88.3308 220.144 88.3636C220.535 88.4568 220.882 88.6788 221.131 88.9936C221.38 89.3084 221.516 89.6979 221.516 90.0992V106.158H225.572C225.769 106.158 225.959 106.23 226.107 106.36C226.255 106.491 226.351 106.67 226.376 106.865C226.379 106.901 226.383 106.934 226.383 106.969H226.383ZM222.584 105.509H222.165V105.467C221.951 105.496 221.734 105.526 221.516 105.558V106.158H224.514C223.885 105.931 223.241 105.715 222.584 105.509Z" fill="#3F3D56"/>
<path d="M205.294 99.9946C206.369 99.9946 207.241 99.1231 207.241 98.0481C207.241 96.9731 206.369 96.1016 205.294 96.1016C204.219 96.1016 203.348 96.9731 203.348 98.0481C203.348 99.1231 204.219 99.9946 205.294 99.9946Z" fill="#0E71BA"/>
<path d="M224.667 64.0732C222.816 65.7266 220.335 67.5012 218.068 66.2899C216.58 65.4945 215.918 63.7503 216.265 62.0992C216.89 59.13 219.457 57.5257 221.943 56.2288C225.173 54.5428 228.739 53.0726 232.357 53.5109C235.975 53.9492 239.509 56.9387 239.338 60.579C239.201 63.5064 236.811 66.2374 237.567 69.0687C238.329 71.9182 241.788 73.0216 244.733 73.1666C247.679 73.3115 250.922 73.0604 253.259 74.8599C256.241 77.1555 256.193 81.9557 254.07 85.0627C251.948 88.1697 248.364 89.918 244.844 91.247C240.18 93.0079 235.054 94.2802 230.24 92.9856C225.426 91.691 221.211 87.0723 221.917 82.1373C222.215 80.0528 223.312 78.1816 224.37 76.3611C225.429 74.5406 226.493 72.6424 226.716 70.5484C226.901 68.8034 226.346 66.8771 225.059 65.753C224.826 65.5573 224.662 65.2927 224.588 64.9974C224.515 64.702 224.537 64.3911 224.652 64.1092L224.667 64.0732Z" fill="#2F2E41"/>
<path d="M0.386429 147H251.261C251.363 147 251.462 146.959 251.534 146.887C251.607 146.815 251.647 146.716 251.647 146.614C251.647 146.511 251.607 146.413 251.534 146.341C251.462 146.268 251.363 146.228 251.261 146.228H0.386429C0.335607 146.227 0.285258 146.237 0.238262 146.257C0.191266 146.276 0.148552 146.304 0.112564 146.34C0.0765749 146.376 0.04802 146.419 0.0285372 146.466C0.00905433 146.513 -0.000976562 146.563 -0.000976562 146.614C-0.000976562 146.665 0.00905433 146.715 0.0285372 146.762C0.04802 146.809 0.0765749 146.851 0.112564 146.887C0.148552 146.923 0.191266 146.952 0.238262 146.971C0.285258 146.99 0.335607 147 0.386429 147Z" fill="#3F3D56"/>
<path d="M13.1167 114.767V115.416C13.1176 116.492 13.5452 117.522 14.3055 118.283C15.0658 119.043 16.0967 119.471 17.172 119.472H46.3701C47.4455 119.471 48.4767 119.044 49.2372 118.283C49.9976 117.523 50.425 116.492 50.4254 115.416V114.767C50.4274 113.818 50.0941 112.899 49.4844 112.172C49.2815 111.931 49.0519 111.713 48.7999 111.523C48.7999 111.523 32.7475 111.16 32.7475 110.712H17.172C16.0969 110.714 15.0663 111.141 14.3061 111.902C13.5459 112.662 13.1182 113.692 13.1167 114.767Z" fill="#3F3D56"/>
<path d="M29.5012 146.562H33.7188V119.31H29.5012L29.5012 146.562Z" fill="#3F3D56"/>
<path d="M17.4976 146.414C17.4976 146.87 23.8885 146.59 31.7722 146.59C39.6558 146.59 46.0468 146.87 46.0468 146.414C46.0468 145.958 39.6558 142.344 31.7722 142.344C23.8885 142.344 17.4976 145.958 17.4976 146.414Z" fill="#3F3D56"/>
<path d="M53.0529 143.076H57.0303L58.9224 127.735L53.0522 127.735L53.0529 143.076Z" fill="#A0616A"/>
<path d="M64.7012 146.769L52.2009 146.77L52.2007 141.94L59.8713 141.94C61.1522 141.94 62.3807 142.449 63.2864 143.354C64.1922 144.26 64.7011 145.488 64.7012 146.769L64.7012 146.769Z" fill="#2F2E41"/>
<path d="M59.262 140.857L63.0567 139.666L60.2693 124.462L54.6685 126.219L59.262 140.857Z" fill="#A0616A"/>
<path d="M71.4809 140.893L59.5542 144.636L58.1081 140.028L65.4268 137.731C66.6489 137.348 67.9734 137.465 69.1088 138.058C70.2441 138.651 71.0974 139.671 71.481 140.893L71.4809 140.893Z" fill="#2F2E41"/>
<path d="M56.6007 133.796L49.3247 114.696C47.6924 115.08 34.0033 118.109 29.4185 113.227C27.8472 111.554 27.5408 109.13 28.5076 106.023L31.1833 102.66L31.2665 102.665C32.2782 102.718 56.0639 104.051 57.6944 111.226C59.0691 117.274 61.5799 128.552 62.3165 131.864C62.3912 132.207 62.3401 132.566 62.1726 132.874C62.005 133.183 61.7321 133.421 61.4036 133.546L58.4776 134.643C58.3145 134.704 58.1418 134.736 57.9676 134.736C57.6714 134.736 57.3822 134.646 57.1381 134.478C56.8941 134.31 56.7067 134.072 56.6007 133.796Z" fill="#2F2E41"/>
<path d="M52.3834 136.067L45.1074 116.967C43.475 117.351 29.7861 120.38 25.2012 115.498C23.6299 113.825 23.3235 111.401 24.2903 108.294L26.966 104.931L27.0492 104.936C28.0609 104.989 51.8466 106.322 53.4771 113.497C54.8519 119.545 57.3626 130.823 58.0993 134.135C58.174 134.478 58.1228 134.837 57.9553 135.145C57.7877 135.454 57.5148 135.692 57.1863 135.817L54.2603 136.914C54.0972 136.975 53.9245 137.007 53.7503 137.007C53.4541 137.007 53.1649 136.917 52.9208 136.749C52.6768 136.581 52.4894 136.343 52.3834 136.067Z" fill="#2F2E41"/>
<path d="M45.8384 99.0118C44.76 99.0114 43.7002 98.731 42.7628 98.198C41.8253 97.6651 41.0423 96.8978 40.4904 95.9714L38.1797 92.057L43.672 89.0551L46.004 92.2526L61.8273 90.5855C61.9043 90.4462 61.9909 90.3124 62.0866 90.1852C62.3902 89.7857 62.7746 89.4545 63.2147 89.2134C63.6548 88.9723 64.1407 88.8265 64.6408 88.7856C65.1432 88.7425 65.649 88.8075 66.1242 88.976C66.5995 89.1446 67.0331 89.4129 67.3961 89.7629C67.978 90.3209 68.3542 91.0592 68.4637 91.858C68.5733 92.6568 68.4096 93.4691 67.9995 94.1632C67.7428 94.5957 67.3977 94.969 66.9867 95.2588C66.5757 95.5486 66.1081 95.7483 65.6146 95.8448C65.121 95.9414 64.6127 95.9325 64.1228 95.8189C63.6329 95.7052 63.1725 95.4894 62.7719 95.1854C62.679 95.1144 62.5899 95.0385 62.5049 94.9583L47.3497 98.8223C46.8558 98.9483 46.3481 99.0119 45.8384 99.0118Z" fill="#A0616A"/>
<path d="M24.1873 109.302C23.9683 109.144 23.7973 108.929 23.6932 108.68C23.589 108.431 23.5558 108.158 23.5973 107.891C24.5 101.94 23.4614 93.4157 22.4311 87.3122C22.2202 86.0738 22.3022 84.8033 22.6707 83.6023C23.0392 82.4013 23.6838 81.3033 24.5529 80.3963C25.422 79.4892 26.4915 78.7984 27.6756 78.379C28.8598 77.9596 30.1257 77.8234 31.372 77.9812C32.4563 78.1245 33.5304 78.3362 34.5879 78.6152C36.3446 79.0576 37.8984 80.0845 38.994 81.5271C40.0896 82.9697 40.6617 84.7422 40.6163 86.5531C40.4623 92.4428 41.6582 99.7914 42.1795 102.677C42.2151 102.876 42.2095 103.079 42.1629 103.275C42.1164 103.471 42.03 103.655 41.909 103.816C41.7905 103.976 41.6399 104.109 41.467 104.206C41.294 104.304 41.1025 104.365 40.9048 104.384C35.1274 104.974 28.8972 107.791 25.6976 109.418C25.492 109.524 25.2641 109.58 25.0327 109.581C24.7285 109.58 24.4325 109.482 24.1873 109.302Z" fill="#CCCCCC"/>
<path d="M39.7829 93.9532C39.6043 93.8831 39.4414 93.7782 39.3037 93.6447C39.1659 93.5112 39.056 93.3517 38.9804 93.1754L35.7584 85.7324C35.5633 85.2827 35.4587 84.799 35.4507 84.3088C35.4427 83.8187 35.5313 83.3318 35.7115 82.8759C35.8917 82.4201 36.16 82.0042 36.5011 81.6521C36.8421 81.3 37.2492 81.0185 37.6991 80.8238C38.1489 80.6291 38.6327 80.5249 39.1229 80.5173C39.613 80.5097 40.0999 80.5987 40.5556 80.7793C41.0113 80.9599 41.4269 81.2286 41.7788 81.5699C42.1306 81.9112 42.4117 82.3185 42.606 82.7686L45.8281 90.2116C45.9814 90.567 45.9875 90.9686 45.845 91.3285C45.7026 91.6883 45.4233 91.977 45.0683 92.1312L40.9001 93.9355C40.7243 94.0122 40.5351 94.0533 40.3433 94.0563C40.1515 94.0594 39.961 94.0243 39.7829 93.9532H39.7829Z" fill="#CCCCCC"/>
<path d="M30.7792 75.4493C35.1799 75.4493 38.7474 71.8818 38.7474 67.4811C38.7474 63.0804 35.1799 59.5129 30.7792 59.5129C26.3785 59.5129 22.811 63.0804 22.811 67.4811C22.811 71.8818 26.3785 75.4493 30.7792 75.4493Z" fill="#A0616A"/>
<path d="M25.9636 74.5601C25.8508 74.6904 25.7129 74.7967 25.5582 74.8728C25.4035 74.9489 25.2352 74.9932 25.063 75.0031C24.8909 75.013 24.7186 74.9883 24.5562 74.9304C24.3938 74.8725 24.2447 74.7827 24.1176 74.6662C22.3409 73.2279 20.9317 71.3877 20.0065 69.2974C18.9705 66.8282 18.8187 63.8149 19.9977 61.5005C20.9943 59.544 22.7834 58.2985 24.5694 57.2806C25.2541 56.8492 26.0045 56.5321 26.791 56.3417C27.1883 56.2515 27.6001 56.2455 27.9998 56.3241C28.3996 56.4027 28.7784 56.5642 29.112 56.798C29.4659 57.0672 29.7398 57.4277 29.9043 57.8408C30.0688 58.2539 30.1177 58.704 30.0456 59.1427C30.8626 58.0665 31.964 57.2399 33.2257 56.7561C33.9998 56.4229 34.8647 56.365 35.6763 56.592C36.8233 56.9748 37.6723 58.133 38.1448 59.3775C38.5268 60.3302 38.6668 61.3628 38.5521 62.3828C38.502 62.8699 38.3535 63.3417 38.1154 63.7696C37.8773 64.1974 37.5546 64.5724 37.1671 64.8716C36.2315 65.5172 35.0261 65.4516 33.938 65.1659C32.85 64.8802 31.794 64.3958 30.6869 64.2607C29.5799 64.1256 28.3529 64.4185 27.6934 65.4059C27.2289 66.1012 27.1193 67.0172 27.0246 67.8904L26.5316 72.4319C26.4968 73.0816 26.3568 73.7214 26.1171 74.3264C26.0766 74.4107 26.025 74.4893 25.9636 74.5601Z" fill="#2F2E41"/>
<path d="M54.7846 123.636H41.849C41.6394 123.637 41.4324 123.589 41.2438 123.498C41.0552 123.407 40.8899 123.273 40.7605 123.108C40.6283 122.941 40.536 122.746 40.4906 122.538C40.4453 122.329 40.448 122.114 40.4987 121.906C41.7087 116.838 41.7086 111.556 40.4986 106.488C40.448 106.281 40.4452 106.065 40.4906 105.857C40.536 105.649 40.6283 105.454 40.7605 105.286C40.8899 105.121 41.0552 104.988 41.2438 104.897C41.4324 104.805 41.6394 104.758 41.849 104.759H54.7846C55.1151 104.759 55.4347 104.877 55.6864 105.092C55.9382 105.306 56.1057 105.602 56.1592 105.929C57.0029 111.409 57.0029 116.986 56.1592 122.466C56.1057 122.792 55.9382 123.089 55.6864 123.303C55.4347 123.517 55.1151 123.635 54.7846 123.636Z" fill="#CCCCCC"/>
<path d="M44.8564 111.791V111.411C44.8567 111.153 44.9594 110.905 45.1418 110.723C45.3243 110.54 45.5717 110.438 45.8297 110.438H52.6178C52.8758 110.438 53.1232 110.54 53.3057 110.723C53.4882 110.905 53.5908 111.153 53.5911 111.411V111.791C53.5908 112.049 53.4882 112.296 53.3057 112.479C53.1232 112.661 52.8758 112.764 52.6178 112.764H45.8297C45.5717 112.764 45.3243 112.661 45.1418 112.479C44.9594 112.296 44.8567 112.049 44.8564 111.791Z" fill="white"/>
<path d="M44.8564 115.796V115.416C44.8567 115.158 44.9594 114.91 45.1418 114.728C45.3243 114.545 45.5717 114.443 45.8297 114.442H52.6178C52.8758 114.443 53.1232 114.545 53.3057 114.728C53.4882 114.91 53.5908 115.158 53.5911 115.416V115.796C53.5908 116.054 53.4882 116.301 53.3057 116.484C53.1232 116.666 52.8758 116.769 52.6178 116.769H45.8297C45.5717 116.769 45.3243 116.666 45.1418 116.484C44.9594 116.301 44.8567 116.054 44.8564 115.796Z" fill="white"/>
<path d="M49.0292 100.195C48.8948 100.025 48.801 99.8267 48.7549 99.615C48.7087 99.4033 48.7115 99.1838 48.763 98.9733C49.9929 93.8219 49.9929 88.4532 48.7629 83.3018C48.7115 83.0913 48.7087 82.8718 48.7549 82.6601C48.801 82.4484 48.8949 82.25 49.0292 82.08C49.1607 81.9124 49.3288 81.777 49.5205 81.6841C49.7122 81.5912 49.9226 81.5433 50.1356 81.544H63.2836C63.6196 81.5446 63.9444 81.6644 64.2003 81.8822C64.4562 82.0999 64.6264 82.4014 64.6808 82.7329C65.5385 88.3032 65.5385 93.9719 64.6808 99.5422C64.6264 99.8738 64.4562 100.175 64.2003 100.393C63.9444 100.611 63.6196 100.731 63.2836 100.731H50.1356C49.9226 100.732 49.7122 100.684 49.5205 100.591C49.3287 100.498 49.1607 100.363 49.0292 100.195Z" fill="#0E71BA"/>
<path d="M60.7467 88.6235H53.8204C53.5624 88.6232 53.315 88.5206 53.1325 88.3381C52.9501 88.1557 52.8474 87.9083 52.8472 87.6502V87.2369C52.8474 86.9789 52.9501 86.7315 53.1325 86.549C53.315 86.3666 53.5624 86.264 53.8204 86.2637H60.7467C61.0047 86.264 61.2521 86.3666 61.4346 86.549C61.617 86.7315 61.7197 86.9789 61.7199 87.2369V87.6502C61.7197 87.9083 61.617 88.1557 61.4346 88.3381C61.2521 88.5206 61.0047 88.6232 60.7467 88.6235Z" fill="white"/>
<path d="M60.7467 92.6941H53.8204C53.5624 92.6938 53.315 92.5912 53.1325 92.4087C52.9501 92.2262 52.8474 91.9788 52.8472 91.7208V91.3075C52.8474 91.0495 52.9501 90.8021 53.1325 90.6196C53.315 90.4371 53.5624 90.3345 53.8204 90.3342H60.7467C61.0047 90.3345 61.2521 90.4371 61.4346 90.6196C61.617 90.8021 61.7197 91.0495 61.7199 91.3075V91.7208C61.7197 91.9789 61.617 92.2262 61.4346 92.4087C61.2521 92.5912 61.0047 92.6938 60.7467 92.6941Z" fill="white"/>
<path d="M42.9968 107.332C42.5231 107.166 42.0895 106.903 41.7242 106.559C41.359 106.215 41.0704 105.797 40.8771 105.334C40.8324 105.226 40.7935 105.116 40.7605 105.004L23.7861 100.172C23.0566 99.9614 22.4146 99.5212 21.9551 98.9167C21.4957 98.3123 21.2435 97.5758 21.2358 96.8166L21.1943 90.2627L27.4511 90.4301L27.8589 94.3668L42.3738 100.883C42.5104 100.802 42.6526 100.73 42.7993 100.668H42.7994C43.334 100.444 43.9152 100.353 44.4927 100.404C45.0703 100.454 45.6268 100.645 46.1143 100.959C46.6017 101.273 47.0054 101.7 47.2906 102.205C47.5757 102.71 47.7337 103.277 47.7508 103.856C47.768 104.436 47.6439 105.011 47.3891 105.531C47.1344 106.052 46.7567 106.503 46.2887 106.845C45.8207 107.187 45.2764 107.411 44.7029 107.495C44.1294 107.58 43.5438 107.524 42.9968 107.332Z" fill="#A0616A"/>
<path d="M21.2916 93.1398C21.1642 92.9964 21.0664 92.8292 21.0041 92.6477C20.9417 92.4663 20.916 92.2744 20.9283 92.0829L21.426 83.9877C21.4553 83.4981 21.5808 83.0191 21.7954 82.5781C22.01 82.1371 22.3095 81.7427 22.6766 81.4175C23.0438 81.0924 23.4715 80.8428 23.9352 80.6831C24.399 80.5234 24.8896 80.4567 25.3792 80.4868C25.8687 80.5169 26.3475 80.6432 26.7882 80.8586C27.2288 81.0739 27.6227 81.3741 27.9472 81.7418C28.2718 82.1095 28.5207 82.5376 28.6796 83.0017C28.8385 83.4657 28.9044 83.9564 28.8734 84.4459L28.3759 92.5412C28.3516 92.9274 28.1751 93.2883 27.8852 93.5446C27.5952 93.801 27.2155 93.9319 26.8292 93.9086L22.2958 93.6299C22.1043 93.6187 21.917 93.5696 21.7446 93.4855C21.5722 93.4013 21.4183 93.2838 21.2916 93.1398H21.2916Z" fill="#CCCCCC"/>
<path d="M94.252 49.6574H67.6493C66.8752 49.6565 66.133 49.3486 65.5857 48.8012C65.0383 48.2538 64.7304 47.5117 64.7295 46.7376V17.8639C64.7304 17.0898 65.0383 16.3476 65.5857 15.8003C66.133 15.2529 66.8752 14.945 67.6493 14.9441H94.252C95.0261 14.945 95.7683 15.2529 96.3156 15.8003C96.863 16.3476 97.1709 17.0898 97.1718 17.8639V46.7376C97.1709 47.5117 96.863 48.2538 96.3156 48.8012C95.7683 49.3486 95.0261 49.6565 94.252 49.6574ZM67.6493 15.5929C67.0472 15.5936 66.47 15.8331 66.0442 16.2588C65.6185 16.6846 65.379 17.2618 65.3783 17.8639V46.7376C65.379 47.3396 65.6185 47.9169 66.0442 48.3426C66.47 48.7684 67.0472 49.0078 67.6493 49.0085H94.252C94.8541 49.0078 95.4313 48.7684 95.8571 48.3426C96.2828 47.9169 96.5223 47.3396 96.523 46.7376V17.8639C96.5223 17.2618 96.2828 16.6846 95.8571 16.2588C95.4313 15.8331 94.8541 15.5936 94.252 15.5929H67.6493Z" fill="#3F3D56"/>
<path d="M142.916 49.6574H116.313C115.539 49.6565 114.797 49.3486 114.249 48.8012C113.702 48.2538 113.394 47.5117 113.393 46.7376V17.8639C113.394 17.0898 113.702 16.3476 114.249 15.8003C114.797 15.2529 115.539 14.945 116.313 14.9441H142.916C143.69 14.945 144.432 15.2529 144.979 15.8003C145.527 16.3476 145.834 17.0898 145.835 17.8639V46.7376C145.834 47.5117 145.527 48.2538 144.979 48.8012C144.432 49.3486 143.69 49.6565 142.916 49.6574ZM116.313 15.5929C115.711 15.5936 115.134 15.8331 114.708 16.2588C114.282 16.6846 114.043 17.2618 114.042 17.8639V46.7376C114.043 47.3396 114.282 47.9169 114.708 48.3426C115.134 48.7684 115.711 49.0078 116.313 49.0085H142.916C143.518 49.0078 144.095 48.7684 144.521 48.3426C144.946 47.9169 145.186 47.3396 145.187 46.7376V17.8639C145.186 17.2618 144.946 16.6846 144.521 16.2588C144.095 15.8331 143.518 15.5936 142.916 15.5929H116.313Z" fill="#3F3D56"/>
<path d="M73.0074 26.9478H70.4121C70.025 26.9474 69.6539 26.7934 69.3802 26.5197C69.1065 26.246 68.9526 25.875 68.9521 25.4879V22.8925C68.9526 22.5055 69.1065 22.1344 69.3802 21.8607C69.6539 21.587 70.025 21.433 70.4121 21.4326H73.0074C73.3945 21.433 73.7656 21.587 74.0393 21.8607C74.313 22.1344 74.4669 22.5055 74.4673 22.8925V25.4879C74.4669 25.875 74.313 26.246 74.0393 26.5197C73.7656 26.7934 73.3945 26.9474 73.0074 26.9478Z" fill="#0E71BA"/>
<path d="M73.0074 35.0584H70.4121C70.025 35.058 69.6539 34.904 69.3802 34.6303C69.1065 34.3566 68.9526 33.9856 68.9521 33.5985V31.0031C68.9526 30.6161 69.1065 30.245 69.3802 29.9713C69.6539 29.6976 70.025 29.5436 70.4121 29.5432H73.0074C73.3945 29.5436 73.7656 29.6976 74.0393 29.9713C74.313 30.245 74.4669 30.6161 74.4673 31.0031V33.5985C74.4669 33.9856 74.313 34.3566 74.0393 34.6303C73.7656 34.904 73.3945 35.058 73.0074 35.0584Z" fill="#CCCCCC"/>
<path d="M91.976 25.3701H79.859C79.601 25.3698 79.3536 25.2672 79.1711 25.0847C78.9887 24.9022 78.886 24.6549 78.8857 24.3968V23.9835C78.886 23.7255 78.9887 23.4781 79.1711 23.2956C79.3536 23.1132 79.601 23.0105 79.859 23.0103H91.976C92.2341 23.0105 92.4814 23.1132 92.6639 23.2956C92.8464 23.4781 92.949 23.7255 92.9493 23.9835V24.3968C92.949 24.6549 92.8464 24.9022 92.6639 25.0847C92.4814 25.2672 92.2341 25.3698 91.976 25.3701Z" fill="#0E71BA"/>
<path d="M121.895 26.439H119.299C118.912 26.4386 118.541 26.2846 118.267 26.0109C117.994 25.7373 117.84 25.3662 117.839 24.9791V22.3837C117.84 21.9967 117.994 21.6256 118.267 21.3519C118.541 21.0782 118.912 20.9243 119.299 20.9238H121.895C122.282 20.9243 122.653 21.0782 122.926 21.3519C123.2 21.6256 123.354 21.9967 123.355 22.3837V24.9791C123.354 25.3662 123.2 25.7373 122.926 26.0109C122.653 26.2846 122.282 26.4386 121.895 26.439Z" fill="#CCCCCC"/>
<path d="M140.863 24.8613H128.746C128.488 24.861 128.241 24.7584 128.058 24.5759C127.876 24.3935 127.773 24.1461 127.773 23.888V23.4747C127.773 23.2167 127.876 22.9693 128.058 22.7868C128.241 22.6044 128.488 22.5017 128.746 22.5015H140.863C141.121 22.5017 141.369 22.6044 141.551 22.7868C141.734 22.9693 141.836 23.2167 141.836 23.4747V23.888C141.836 24.1461 141.734 24.3935 141.551 24.5759C141.369 24.7584 141.121 24.861 140.863 24.8613Z" fill="#CCCCCC"/>
<path d="M140.863 32.6474H118.365C118.107 32.6471 117.859 32.5445 117.677 32.3621C117.495 32.1796 117.392 31.9322 117.392 31.6742V31.2609C117.392 31.0028 117.495 30.7554 117.677 30.573C117.859 30.3905 118.107 30.2879 118.365 30.2876H140.863C141.121 30.2879 141.369 30.3905 141.551 30.573C141.734 30.7554 141.836 31.0028 141.837 31.2609V31.6742C141.836 31.9322 141.734 32.1796 141.551 32.3621C141.369 32.5445 141.121 32.6471 140.863 32.6474Z" fill="#0E71BA"/>
<path d="M140.863 38.1626H118.365C118.107 38.1623 117.859 38.0597 117.677 37.8772C117.495 37.6947 117.392 37.4473 117.392 37.1893V36.776C117.392 36.518 117.495 36.2706 117.677 36.0881C117.859 35.9056 118.107 35.803 118.365 35.8027H140.863C141.121 35.803 141.369 35.9056 141.551 36.0881C141.734 36.2706 141.836 36.518 141.837 36.776V37.1893C141.836 37.4473 141.734 37.6947 141.551 37.8772C141.369 38.0597 141.121 38.1623 140.863 38.1626Z" fill="#CCCCCC"/>
<path d="M140.863 43.6779H118.365C118.107 43.6777 117.859 43.575 117.677 43.3926C117.495 43.2101 117.392 42.9627 117.392 42.7047V42.2914C117.392 42.0333 117.495 41.786 117.677 41.6035C117.859 41.421 118.107 41.3184 118.365 41.3181H140.863C141.121 41.3184 141.369 41.421 141.551 41.6035C141.734 41.786 141.836 42.0333 141.837 42.2914V42.7047C141.836 42.9627 141.734 43.2101 141.551 43.3926C141.369 43.575 141.121 43.6777 140.863 43.6779Z" fill="#CCCCCC"/>
<path d="M191.579 49.6574H164.976C164.202 49.6565 163.46 49.3486 162.913 48.8012C162.365 48.2538 162.058 47.5117 162.057 46.7376V17.8639C162.058 17.0898 162.365 16.3476 162.913 15.8003C163.46 15.2529 164.202 14.945 164.976 14.9441H191.579C192.353 14.945 193.095 15.2529 193.643 15.8003C194.19 16.3476 194.498 17.0898 194.499 17.8639V46.7376C194.498 47.5117 194.19 48.2538 193.643 48.8012C193.095 49.3486 192.353 49.6565 191.579 49.6574ZM164.976 15.5929C164.374 15.5936 163.797 15.8331 163.371 16.2588C162.946 16.6846 162.706 17.2618 162.705 17.8639V46.7376C162.706 47.3396 162.946 47.9169 163.371 48.3426C163.797 48.7684 164.374 49.0078 164.976 49.0085H191.579C192.181 49.0078 192.758 48.7684 193.184 48.3426C193.61 47.9169 193.849 47.3396 193.85 46.7376V17.8639C193.849 17.2618 193.61 16.6846 193.184 16.2588C192.758 15.8331 192.181 15.5936 191.579 15.5929H164.976Z" fill="#3F3D56"/>
<path d="M189.527 24.8613H177.41C177.152 24.861 176.904 24.7584 176.722 24.5759C176.539 24.3935 176.437 24.1461 176.437 23.888V23.4747C176.437 23.2167 176.539 22.9693 176.722 22.7868C176.904 22.6044 177.152 22.5017 177.41 22.5015H189.527C189.785 22.5017 190.032 22.6044 190.215 22.7868C190.397 22.9693 190.5 23.2167 190.5 23.4747V23.888C190.5 24.1461 190.397 24.3935 190.215 24.5759C190.032 24.7584 189.785 24.861 189.527 24.8613Z" fill="#CCCCCC"/>
<path d="M189.527 32.6474H167.028C166.77 32.6471 166.523 32.5445 166.341 32.3621C166.158 32.1796 166.055 31.9322 166.055 31.6742V31.2609C166.055 31.0028 166.158 30.7554 166.341 30.573C166.523 30.3905 166.77 30.2879 167.028 30.2876H189.527C189.785 30.2879 190.032 30.3905 190.215 30.573C190.397 30.7554 190.5 31.0028 190.5 31.2609V31.6742C190.5 31.9322 190.397 32.1796 190.215 32.3621C190.032 32.5445 189.785 32.6471 189.527 32.6474Z" fill="#CCCCCC"/>
<path d="M189.527 38.1626H167.028C166.77 38.1623 166.523 38.0597 166.341 37.8772C166.158 37.6947 166.055 37.4473 166.055 37.1893V36.776C166.055 36.518 166.158 36.2706 166.341 36.0881C166.523 35.9056 166.77 35.803 167.028 35.8027H189.527C189.785 35.803 190.032 35.9056 190.215 36.0881C190.397 36.2706 190.5 36.518 190.5 36.776V37.1893C190.5 37.4473 190.397 37.6947 190.215 37.8772C190.032 38.0597 189.785 38.1623 189.527 38.1626Z" fill="#CCCCCC"/>
<path d="M189.527 43.6779H167.028C166.77 43.6777 166.523 43.575 166.341 43.3926C166.158 43.2101 166.055 42.9627 166.055 42.7047V42.2914C166.055 42.0333 166.158 41.786 166.341 41.6035C166.523 41.421 166.77 41.3184 167.028 41.3181H189.527C189.785 41.3184 190.032 41.421 190.215 41.6035C190.397 41.786 190.5 42.0333 190.5 42.2914V42.7047C190.5 42.9627 190.397 43.2101 190.215 43.3926C190.032 43.575 189.785 43.6777 189.527 43.6779Z" fill="#CCCCCC"/>
<path d="M91.976 33.4807H79.859C79.601 33.4804 79.3536 33.3778 79.1711 33.1953C78.9887 33.0128 78.886 32.7655 78.8857 32.5074V32.0941C78.886 31.8361 78.9887 31.5887 79.1711 31.4062C79.3536 31.2238 79.601 31.1211 79.859 31.1208H91.976C92.2341 31.1211 92.4814 31.2238 92.6639 31.4062C92.8464 31.5887 92.949 31.8361 92.9493 32.0941V32.5074C92.949 32.7655 92.8464 33.0128 92.6639 33.1953C92.4814 33.3778 92.2341 33.4804 91.976 33.4807Z" fill="#CCCCCC"/>
<path d="M73.0074 43.169H70.4121C70.025 43.1686 69.6539 43.0146 69.3802 42.7409C69.1065 42.4672 68.9526 42.0962 68.9521 41.7091V39.1137C68.9526 38.7267 69.1065 38.3556 69.3802 38.0819C69.6539 37.8082 70.025 37.6542 70.4121 37.6538H73.0074C73.3945 37.6542 73.7656 37.8082 74.0393 38.0819C74.313 38.3556 74.4669 38.7267 74.4673 39.1137V41.7091C74.4669 42.0962 74.313 42.4672 74.0393 42.7409C73.7656 43.0146 73.3945 43.1686 73.0074 43.169Z" fill="#CCCCCC"/>
<path d="M91.976 41.5913H79.859C79.601 41.591 79.3536 41.4884 79.1711 41.3059C78.9887 41.1234 78.886 40.876 78.8857 40.618V40.2047C78.886 39.9467 78.9887 39.6993 79.1711 39.5168C79.3536 39.3344 79.601 39.2317 79.859 39.2314H91.976C92.2341 39.2317 92.4814 39.3344 92.6639 39.5168C92.8464 39.6993 92.949 39.9467 92.9493 40.2047V40.618C92.949 40.876 92.8464 41.1234 92.6639 41.3059C92.4814 41.4884 92.2341 41.591 91.976 41.5913Z" fill="#CCCCCC"/>
<path d="M172.113 23.3793C172.113 23.3718 172.114 23.3646 172.114 23.3571C172.114 22.9736 172.038 22.594 171.891 22.2397C171.745 21.8855 171.53 21.5636 171.258 21.2924C170.987 21.0213 170.665 20.8062 170.311 20.6595C169.957 20.5128 169.577 20.4373 169.194 20.4373V23.3793H172.113Z" fill="#0E71BA"/>
<path d="M168.87 23.7035V20.7615C168.293 20.7613 167.729 20.9318 167.249 21.2515C166.77 21.5712 166.395 22.0259 166.173 22.5581C165.952 23.0903 165.892 23.6763 166.003 24.2421C166.114 24.808 166.39 25.3283 166.796 25.7377C167.202 26.147 167.72 26.4269 168.285 26.5422C168.85 26.6574 169.436 26.6028 169.97 26.3853C170.504 26.1677 170.962 25.7969 171.285 25.3197C171.609 24.8424 171.784 24.2801 171.788 23.7035H168.87Z" fill="#CCCCCC"/>
</g>
<defs>
<clipPath id="clip0_20_136">
<rect width="255.589" height="147" fill="white"/>
</clipPath>
</defs>
</svg>
