<svg width="208" height="169" viewBox="0 0 208 169" fill="none" xmlns="http://www.w3.org/2000/svg">
<g clip-path="url(#clip0_20_15)">
<path d="M166.051 30.7449C164.971 42.6561 161.893 55.2158 157.065 67.3343C151.095 82.3204 142.938 95.5201 133.477 105.506L132.952 105.048C142.367 95.11 150.487 81.9686 156.432 67.0445C161.805 53.5579 165.001 39.523 165.678 26.4634L166.349 26.5758C166.278 27.955 166.179 29.3447 166.051 30.7449Z" fill="#F2F2F2"/>
<path d="M170.355 99.923C157.066 121.076 140.943 136.19 124.956 142.481L124.633 141.888C140.509 135.641 156.537 120.604 169.766 99.5474L170.355 99.923Z" fill="#F2F2F2"/>
<path d="M165.729 45.575C164.649 57.4862 161.57 70.0459 156.743 82.1644C150.773 97.1505 142.616 110.35 133.154 120.336L132.629 119.878C142.045 109.94 150.165 96.7987 156.11 81.8746C161.483 68.388 164.678 54.3531 165.356 41.2935L166.027 41.4058C165.955 42.7851 165.856 44.1748 165.729 45.575Z" fill="#F2F2F2"/>
<path d="M16.5392 76.1546H7.81978C7.63349 76.155 7.44952 76.1132 7.28169 76.0323C7.11385 75.9514 6.9665 75.8335 6.85069 75.6876C6.73628 75.5453 6.65557 75.3789 6.6146 75.201C6.57363 75.023 6.57347 74.8381 6.61415 74.6601C7.44458 70.994 7.39241 67.1829 6.46194 63.5409C6.40308 63.3011 6.41731 63.0491 6.5028 62.8175C6.58828 62.5859 6.7411 62.3851 6.94159 62.2411C11.4251 59.0148 14.9561 59.1085 17.4364 62.5199C17.5482 62.6753 17.6225 62.8546 17.6534 63.0437C18.3161 67.0299 18.3528 71.0951 17.7621 75.0926C17.721 75.3876 17.5745 75.6578 17.3497 75.853C17.1249 76.0483 16.8369 76.1554 16.5392 76.1546Z" fill="#E6E6E6"/>
<path d="M13.8358 67.4184H10.8363C10.6705 67.4184 10.5114 67.3525 10.3941 67.2352C10.2768 67.1178 10.2109 66.9587 10.2109 66.7927C10.2109 66.6268 10.2768 66.4676 10.3941 66.3503C10.5114 66.2329 10.6705 66.167 10.8363 66.167H13.8358C14.0015 66.1673 14.1602 66.2334 14.2772 66.3507C14.3942 66.468 14.4599 66.627 14.4599 66.7927C14.4599 66.9584 14.3942 67.1174 14.2772 67.2347C14.1602 67.352 14.0015 67.4181 13.8358 67.4184Z" fill="white"/>
<path d="M13.8358 69.6128H10.8363C10.6705 69.6128 10.5114 69.5468 10.3941 69.4295C10.2768 69.3121 10.2109 69.153 10.2109 68.987C10.2109 68.8211 10.2768 68.6619 10.3941 68.5446C10.5114 68.4273 10.6705 68.3613 10.8363 68.3613H13.8358C14.0015 68.3617 14.1602 68.4278 14.2772 68.5451C14.3942 68.6624 14.4599 68.8213 14.4599 68.987C14.4599 69.1528 14.3942 69.3117 14.2772 69.429C14.1602 69.5463 14.0015 69.6124 13.8358 69.6128Z" fill="white"/>
<path d="M13.8358 71.8071H10.8363C10.6705 71.8071 10.5114 71.7412 10.3941 71.6238C10.2768 71.5065 10.2109 71.3473 10.2109 71.1814C10.2109 71.0154 10.2768 70.8563 10.3941 70.7389C10.5114 70.6216 10.6705 70.5557 10.8363 70.5557H13.8358C14.0015 70.556 14.1602 70.6221 14.2772 70.7394C14.3942 70.8567 14.4599 71.0157 14.4599 71.1814C14.4599 71.3471 14.3942 71.5061 14.2772 71.6234C14.1602 71.7407 14.0015 71.8067 13.8358 71.8071Z" fill="white"/>
<path d="M175.006 115.106H166.287C166.1 115.106 165.916 115.064 165.748 114.983C165.581 114.903 165.433 114.785 165.317 114.639C165.203 114.496 165.122 114.33 165.081 114.152C165.04 113.974 165.04 113.789 165.081 113.611C165.911 109.945 165.859 106.134 164.929 102.492C164.87 102.252 164.884 102 164.97 101.769C165.055 101.537 165.208 101.336 165.408 101.192C169.892 97.966 173.423 98.0596 175.903 101.471C176.015 101.627 176.089 101.806 176.12 101.995C176.783 105.981 176.82 110.046 176.229 114.044C176.188 114.339 176.041 114.609 175.816 114.804C175.592 114.999 175.304 115.107 175.006 115.106Z" fill="#E6E6E6"/>
<path d="M172.303 106.37H169.303C169.138 106.369 168.979 106.303 168.862 106.186C168.745 106.069 168.679 105.91 168.679 105.744C168.679 105.578 168.745 105.419 168.862 105.302C168.979 105.185 169.138 105.119 169.303 105.118H172.303C172.469 105.118 172.628 105.184 172.745 105.301C172.862 105.419 172.928 105.578 172.928 105.744C172.928 105.91 172.862 106.069 172.745 106.186C172.628 106.304 172.469 106.37 172.303 106.37Z" fill="white"/>
<path d="M172.303 108.564H169.303C169.138 108.564 168.979 108.498 168.862 108.38C168.745 108.263 168.679 108.104 168.679 107.938C168.679 107.772 168.745 107.614 168.862 107.496C168.979 107.379 169.138 107.313 169.303 107.312H172.303C172.469 107.312 172.628 107.378 172.745 107.496C172.862 107.613 172.928 107.772 172.928 107.938C172.928 108.104 172.862 108.263 172.745 108.381C172.628 108.498 172.469 108.564 172.303 108.564Z" fill="white"/>
<path d="M172.303 110.759H169.303C169.138 110.758 168.979 110.692 168.862 110.575C168.745 110.457 168.679 110.299 168.679 110.133C168.679 109.967 168.745 109.808 168.862 109.691C168.979 109.574 169.138 109.507 169.303 109.507H172.303C172.469 109.507 172.628 109.573 172.745 109.69C172.862 109.808 172.928 109.967 172.928 110.133C172.928 110.299 172.862 110.458 172.745 110.575C172.628 110.693 172.469 110.759 172.303 110.759Z" fill="white"/>
<path d="M208 168.46C208 168.503 207.992 168.546 207.975 168.586C207.959 168.625 207.935 168.661 207.905 168.692C207.874 168.722 207.838 168.746 207.799 168.762C207.759 168.779 207.717 168.787 207.674 168.787H0.326256C0.239728 168.787 0.156746 168.752 0.0955616 168.691C0.0343769 168.63 0 168.547 0 168.46C0 168.374 0.0343769 168.291 0.0955616 168.23C0.156746 168.168 0.239728 168.134 0.326256 168.134H207.674C207.717 168.134 207.759 168.142 207.799 168.159C207.838 168.175 207.874 168.199 207.905 168.229C207.935 168.26 207.959 168.296 207.975 168.335C207.992 168.375 208 168.418 208 168.46Z" fill="#CCCCCC"/>
<path d="M54.6965 148.475L54.1527 140.907C50.5904 139.125 46.6472 138.241 42.6655 138.33C48.2672 142.662 47.8185 151.32 51.6979 157.246C52.922 159.084 54.544 160.624 56.4437 161.75C58.3434 162.877 60.4721 163.561 62.672 163.752L67.3339 166.436C67.8672 162.909 67.6301 159.309 66.6387 155.883C65.6474 152.457 63.9256 149.287 61.5918 146.591C60.2676 145.092 58.7599 143.765 57.1043 142.642C56.0853 145.569 54.6965 148.475 54.6965 148.475Z" fill="#F2F2F2"/>
<path d="M153.303 149.572L153.847 142.004C157.409 140.222 161.352 139.338 165.334 139.427C159.733 143.759 160.181 152.417 156.302 158.343C155.078 160.182 153.456 161.721 151.556 162.848C149.656 163.974 147.528 164.658 145.328 164.85L140.666 167.533C140.132 164.007 140.37 160.406 141.361 156.98C142.352 153.554 144.074 150.384 146.408 147.688C147.732 146.189 149.24 144.862 150.895 143.74C151.914 146.667 153.303 149.572 153.303 149.572Z" fill="#F2F2F2"/>
<path d="M101.532 64.1714C104.409 64.1714 106.741 61.838 106.741 58.9596C106.741 56.0812 104.409 53.7478 101.532 53.7478C98.6554 53.7478 96.3232 56.0812 96.3232 58.9596C96.3232 61.838 98.6554 64.1714 101.532 64.1714Z" fill="#0E71BA"/>
<path d="M104.206 56.7877C104.128 56.7129 104.024 56.6711 103.916 56.6711C103.807 56.6711 103.703 56.7129 103.625 56.7877C102.519 57.6696 101.527 58.6842 100.669 59.8085C100.458 59.4008 100.248 58.9931 100.037 58.5853C99.7938 58.1147 99.0839 58.5305 99.3268 59.0007C99.6348 59.5971 99.9429 60.1934 100.251 60.7898C100.288 60.8507 100.34 60.901 100.402 60.9359C100.465 60.9708 100.535 60.9891 100.606 60.9891C100.677 60.9891 100.747 60.9708 100.81 60.9359C100.872 60.901 100.924 60.8507 100.961 60.7898C101.875 59.5015 102.968 58.3499 104.206 57.3696C104.283 57.2921 104.326 57.1875 104.326 57.0786C104.326 56.9697 104.283 56.8651 104.206 56.7877Z" fill="white"/>
<path d="M78.2244 73.7384L70.3691 61.3959L79.4653 56.522L81.8527 65.9388L98.6741 75.0333C99.3382 74.7942 100.058 74.7535 100.744 74.9163C101.431 75.0792 102.056 75.4384 102.542 75.9503C103.028 76.4621 103.355 77.1045 103.483 77.799C103.611 78.4935 103.534 79.2102 103.261 79.8617C102.989 80.5131 102.533 81.0712 101.949 81.4679C101.365 81.8646 100.678 82.0827 99.9726 82.0957C99.2669 82.1087 98.5727 81.9159 97.9746 81.541C97.3765 81.166 96.9003 80.625 96.6042 79.984L78.2244 73.7384Z" fill="#A0616A"/>
<path d="M64.6303 46.5922C62.1621 50.2179 70.9333 63.3969 70.9333 63.3969C71.3606 62.4754 75.4452 72.8236 76.1293 72.2124C78.0737 70.475 81.1175 65.6355 82.8093 65.4198C83.7769 65.2964 80.5653 58.4309 80.5653 58.4309C80.5653 58.4309 79.0976 54.3769 77.1059 49.1982C76.57 47.7237 75.6699 46.4088 74.4894 45.3759C73.3089 44.343 71.8864 43.6258 70.3543 43.2909C70.3543 43.2909 67.0984 42.9666 64.6303 46.5922Z" fill="#3F3D56"/>
<path d="M64.7508 164.717L68.4814 164.717L70.256 150.32L64.75 150.321L64.7508 164.717Z" fill="#A0616A"/>
<path d="M63.7988 163.499L64.8489 163.499L68.9485 161.831L71.1457 163.499H71.146C72.3878 163.499 73.5786 163.992 74.4566 164.871C75.3347 165.749 75.828 166.941 75.8281 168.183V168.335L63.799 168.336L63.7988 163.499Z" fill="#2F2E41"/>
<path d="M82.0821 164.717L85.8126 164.717L87.5876 150.32L82.0815 150.321L82.0821 164.717Z" fill="#A0616A"/>
<path d="M81.1304 163.499L82.1804 163.499L86.28 161.831L88.4773 163.499H88.4776C89.7193 163.499 90.9101 163.992 91.7882 164.871C92.6662 165.749 93.1595 166.941 93.1596 168.183V168.335L81.1306 168.336L81.1304 163.499Z" fill="#2F2E41"/>
<path d="M83.6973 86.0088L59.4318 86.6157C54.8232 89.1201 54.7533 94.5406 56.2633 100.976C56.2633 100.976 55.7535 104.801 56.773 105.821C57.7925 106.841 58.3023 106.841 57.7925 108.626C57.2828 110.412 59.9761 113.327 59.6489 113.654C59.3218 113.982 58.5572 115.767 58.5572 115.767L61.106 130.302C61.106 130.302 62.8901 155.548 63.3999 156.058C63.9096 156.568 64.4194 156.058 63.9096 157.333C63.3999 158.608 62.8901 158.098 63.3999 158.608C63.8514 159.095 64.2768 159.606 64.6743 160.138H70.8365C70.8365 160.138 71.3011 157.588 71.3011 157.333C71.3011 157.078 71.8108 155.548 71.8108 155.293C71.8108 155.038 71.3603 154.587 71.3603 154.587C71.2046 154.069 71.0994 153.537 71.0462 152.998C71.0462 152.488 69.5169 132.852 69.5169 132.852L72.5755 107.351L79.9669 132.342C79.9669 132.342 79.9669 154.273 80.4767 154.783C80.9864 155.293 80.9864 155.038 80.7316 156.058C80.4767 157.078 79.4572 156.823 80.2218 157.588C80.9864 158.353 81.2413 157.078 80.9864 158.353L80.7316 159.628L88.3779 159.738C88.3779 159.738 89.3974 157.588 88.8877 156.823C88.3779 156.058 88.4085 156.267 89.0304 155.015C89.6523 153.763 89.9072 153.508 89.6523 153.253C89.3974 152.998 89.3974 151.642 89.3974 151.642L88.123 127.242C88.123 127.242 87.8682 101.486 87.8682 100.721C87.8489 100.328 87.9214 99.9348 88.0799 99.574V98.5356L87.1035 94.856L83.6973 86.0088Z" fill="#2F2E41"/>
<path d="M69.1205 35.5265C73.2844 35.5265 76.6599 32.1493 76.6599 27.9832C76.6599 23.8172 73.2844 20.4399 69.1205 20.4399C64.9566 20.4399 61.5811 23.8172 61.5811 27.9832C61.5811 32.1493 64.9566 35.5265 69.1205 35.5265Z" fill="#A0616A"/>
<path d="M72.8901 40.5122C74.5144 41.4783 75.486 43.2535 76.0438 45.0598C77.0764 48.4041 77.698 51.8617 77.8948 55.3564L78.4839 65.8188L85.7801 88.0961C79.4567 93.4494 55.688 89.3127 55.688 89.3127C55.688 89.3127 54.9584 89.0694 55.688 88.3394C56.4177 87.6094 57.1279 88.2562 56.3983 87.5262C55.6687 86.7962 56.1717 87.6094 56.4149 86.8794C56.6581 86.1494 56.4149 86.6361 56.1717 86.3927C55.9285 86.1494 58.0545 83.9594 58.0545 83.9594L56.1088 71.172L53.6768 45.3788C56.5953 41.7289 62.4647 39.5772 62.4647 39.5772L63.9813 36.8459L71.5643 37.4529L72.8901 40.5122Z" fill="#3F3D56"/>
<path d="M75.3353 23.9757C75.9213 24.4129 76.3554 25.0231 76.5766 25.7202C76.6615 24.581 76.6669 23.4372 76.5927 22.2972C76.5039 21.4962 75.9402 21.316 75.2875 21.1072C74.698 20.9185 74.0314 20.7055 73.852 19.9278C71.4821 17.6211 67.3565 17.7374 64.533 18.542C62.9794 18.9848 62.0854 19.5537 62.0054 19.8869L61.9888 19.9555L61.9258 19.9871C60.7282 20.5862 60.4951 22.478 60.5105 23.9595C60.5396 26.7508 61.5029 29.921 62.0456 30.1785C62.0743 30.1921 62.0816 30.1868 62.094 30.1764C62.9111 29.5231 63.908 30.2261 64.3461 30.6082C64.6045 28.8734 65.4365 27.2753 66.7092 26.069C67.9819 24.8628 69.6219 24.118 71.3673 23.9537C71.9373 23.8986 72.5027 23.8038 73.0595 23.6698C73.342 23.5967 73.6323 23.5586 73.924 23.5563C74.4262 23.5487 74.9187 23.695 75.3353 23.9757Z" fill="#2F2E41"/>
<path d="M122.139 92.0193L136.642 77.2842L140.463 65.4991L134.314 63.0107C131.268 66.0849 128.133 75.4957 128.133 75.4957L118.234 88.7881C118.155 88.8174 118.076 88.8485 117.998 88.8853C117.543 89.1005 117.15 89.4298 116.859 89.8413C116.567 90.2527 116.387 90.7324 116.335 91.2339C116.283 91.7355 116.361 92.242 116.562 92.7044C116.763 93.1669 117.08 93.5697 117.482 93.8739C117.884 94.1781 118.357 94.3735 118.857 94.4411C119.356 94.5087 119.864 94.4462 120.333 94.2597C120.801 94.0733 121.213 93.7691 121.53 93.3767C121.846 92.9842 122.056 92.5167 122.139 92.0193Z" fill="#FFB8B8"/>
<path d="M132.637 64.359L140.413 66.6097L140.442 66.6041C143.301 66.0488 145.562 61.2962 146.955 57.4071C147.413 56.1243 147.368 54.7152 146.828 53.4647C146.287 52.2143 145.293 51.2157 144.045 50.6708C143.122 50.2751 142.106 50.1457 141.113 50.2972C140.12 50.4486 139.189 50.875 138.426 51.5281L134.549 54.8683L132.637 64.359Z" fill="#0E71BA"/>
<path d="M125.984 164.28L121.802 164.279L119.812 148.141L125.984 148.141L125.984 164.28Z" fill="#FFB8B8"/>
<path d="M127.051 162.914L125.874 162.914L121.278 161.044L118.815 162.913H118.814C117.422 162.913 116.088 163.467 115.103 164.451C114.119 165.436 113.566 166.772 113.566 168.164V168.335L127.05 168.336L127.051 162.914Z" fill="#2F2E41"/>
<path d="M144.541 164.28L140.358 164.279L138.369 148.141L144.541 148.141L144.541 164.28Z" fill="#FFB8B8"/>
<path d="M145.607 162.914L144.43 162.914L139.835 161.044L137.371 162.913H137.371C135.979 162.913 134.644 163.467 133.66 164.451C132.676 165.436 132.123 166.772 132.123 168.164V168.335L145.607 168.336L145.607 162.914Z" fill="#2F2E41"/>
<path d="M150.917 94.764C150.917 94.764 151.405 100.627 150.185 106.245C148.964 111.864 148.964 127.688 148.964 127.688L146.278 158.523L138.221 157.79L136.023 106.245L128.21 123.59L128.943 126.033L127.967 126.643C127.967 126.643 128.698 131.407 128.21 131.407C127.722 131.407 126.501 132.14 126.501 132.14L127.478 157.301L119.176 157.057L116.246 121.636L119.42 101.36L119.664 97.4511L120.763 97.4963L121.323 95.8633L122.35 93.054L150.917 94.764Z" fill="#2F2E41"/>
<path d="M151.339 95.9953L151.383 95.9342C153.707 92.6788 150.211 84.8562 149.684 83.7221L151.905 83.0012L151.405 78.7487L151.168 76.8529L152.865 75.1549L152.87 75.1126L153.846 66.5626L155.266 60.8837C155.801 58.7369 155.756 56.4863 155.134 54.363C154.513 52.2396 153.337 50.32 151.729 48.8012L148.447 45.7048L144.458 39.7993H138.025L135.819 43.9677C133.681 44.4622 131.784 45.6916 130.458 47.4418C129.132 49.1919 128.462 51.3519 128.565 53.5455L129.065 64.4779L127.108 78.0897L127.107 80.5531L124.904 83.0019L125.385 85.4077L123.709 86.1264L122.969 89.5817C122.663 89.9861 120.641 92.683 120.641 93.4203C120.641 93.531 120.723 93.638 120.898 93.7567C122.276 94.69 129.891 96.5929 133.261 95.2436C136.851 93.8075 151.121 95.9619 151.265 95.9839L151.339 95.9953Z" fill="#0E71BA"/>
<path d="M140.411 37.893C145.116 37.893 148.93 34.0767 148.93 29.3691C148.93 24.6615 145.116 20.8452 140.411 20.8452C135.705 20.8452 131.891 24.6615 131.891 29.3691C131.891 34.0767 135.705 37.893 140.411 37.893Z" fill="#FFB8B8"/>
<path d="M139.594 38.0311C140.914 38.0176 142.229 37.8914 143.527 37.6538C144.812 37.3576 147.647 35.1643 148.42 33.8685C148.994 32.9058 149.339 31.4167 149.527 30.3371C149.781 28.9083 149.732 27.4421 149.383 26.0334C149.035 24.6248 148.394 23.305 147.504 22.1597C147.16 21.6799 146.694 21.3018 146.153 21.0655C146.105 21.0483 146.056 21.0331 146.007 21.0203C145.223 20.8356 144.513 20.4208 143.967 19.8292C143.861 19.7094 143.746 19.5974 143.624 19.4941C143.011 19.0034 142.292 18.6647 141.523 18.5057C140.281 18.2073 138.505 18.5812 136.244 19.6177C135.108 20.1385 133.848 19.9932 132.876 19.8084C132.822 19.7994 132.766 19.8047 132.714 19.824C132.662 19.8432 132.616 19.8757 132.581 19.9182C132.18 20.315 131.643 20.5451 131.079 20.5624C130.734 20.5865 130.384 21.0744 129.963 21.7097C129.867 21.8539 129.755 22.0222 129.674 22.1249L129.658 21.932L129.468 22.1525C129.17 22.4992 128.964 22.9157 128.87 23.3633C128.775 23.811 128.796 24.2752 128.929 24.7128C129.063 25.1503 129.305 25.547 129.633 25.8658C129.961 26.1846 130.364 26.4152 130.805 26.5361C131.155 26.6196 131.512 26.6672 131.872 26.678C132.089 26.692 132.315 26.7064 132.531 26.7383C133.227 26.8621 133.878 27.1643 134.422 27.6153C134.966 28.0662 135.384 28.6506 135.634 29.3113C135.694 29.464 135.787 29.601 135.908 29.7118C136.028 29.8226 136.173 29.9042 136.33 29.9503C136.487 29.9964 136.652 30.0058 136.814 29.9777C136.975 29.9497 137.128 29.8849 137.26 29.7884C137.48 29.6077 137.74 29.4829 138.019 29.4246C138.298 29.3664 138.586 29.3765 138.86 29.454C139.098 29.5785 139.286 29.7813 139.393 30.0282C139.522 30.303 139.73 30.5332 139.99 30.6893C140.877 31.1183 140.989 33.1171 140.717 34.7927C140.456 36.4079 139.887 37.5861 139.334 37.658C138.908 37.7132 138.86 37.7448 138.831 37.8211L138.805 37.8895L138.854 37.9515C139.092 38.031 139.345 38.0581 139.594 38.0311Z" fill="#2F2E41"/>
<path d="M132.526 65.2706L128.431 60.05C124.26 61.1993 116.858 67.7999 116.858 67.7999L101.658 74.3995C101.151 74.3142 100.63 74.3641 100.148 74.5442C99.6663 74.7244 99.2403 75.0283 98.9132 75.4255C98.586 75.8227 98.3692 76.2991 98.2845 76.8068C98.1999 77.3145 98.2504 77.8356 98.431 78.3175C98.6116 78.7994 98.9159 79.2253 99.3133 79.5521C99.7107 79.879 100.187 80.0954 100.695 80.1794C101.202 80.2635 101.723 80.2123 102.204 80.0311C102.686 79.8498 103.111 79.5448 103.437 79.1468L123.349 73.5889L132.526 65.2706Z" fill="#FFB8B8"/>
<path d="M131.545 66.4641L138.006 59.2574L138.365 54.151C138.432 53.1482 138.217 52.1468 137.745 51.2598C137.272 50.3728 136.562 49.6357 135.693 49.1317C134.51 48.4564 133.115 48.2555 131.79 48.5698C130.466 48.884 129.309 49.6899 128.556 50.8244C126.272 54.2671 123.816 58.9218 125.08 61.5461L125.093 61.5728L131.545 66.4641Z" fill="#0E71BA"/>
<path d="M71.9897 93.5517L55.196 84.9464C54.0015 84.3343 53.6058 82.7108 54.314 81.3273L65.2638 59.936C65.972 58.5525 67.52 57.9249 68.7146 58.537L85.5083 67.1423C86.7028 67.7544 87.0985 69.3779 86.3903 70.7614L75.4405 92.1527C74.7323 93.5362 73.1843 94.1638 71.9897 93.5517Z" fill="#E6E6E6"/>
<path d="M69.1205 89.5957L57.7106 83.7492C56.5918 83.1759 56.2211 81.6554 56.8844 80.3597L65.9814 62.5881C66.6446 61.2924 68.0944 60.7048 69.2132 61.278L82.994 68.3394C84.1128 68.9127 84.4833 70.4331 83.8201 71.7289L78.8781 81.3833C75.9238 87.1548 74.1038 92.1492 69.1205 89.5957Z" fill="white"/>
<path d="M74.7615 79.8906L64.6554 74.7121C64.5319 74.624 64.4441 74.4944 64.4081 74.3469C64.3722 74.1994 64.3905 74.0439 64.4596 73.9088C64.5288 73.7737 64.6442 73.668 64.7849 73.611C64.9255 73.554 65.0819 73.5495 65.2256 73.5983L75.3316 78.7768C75.4552 78.8649 75.543 78.9945 75.5789 79.142C75.6149 79.2895 75.5966 79.445 75.5274 79.5801C75.4583 79.7152 75.3428 79.8209 75.2022 79.8779C75.0616 79.9349 74.9051 79.9394 74.7615 79.8906Z" fill="#0E71BA"/>
<path d="M65.8353 78.0946L63.529 76.9128C63.4054 76.8248 63.3176 76.6951 63.2817 76.5476C63.2457 76.4001 63.264 76.2446 63.3332 76.1095C63.4023 75.9744 63.5178 75.8687 63.6584 75.8117C63.799 75.7547 63.9555 75.7502 64.0991 75.799L66.4054 76.9808C66.529 77.0689 66.6168 77.1985 66.6527 77.346C66.6887 77.4935 66.6704 77.649 66.6012 77.7841C66.532 77.9192 66.4166 78.0249 66.276 78.082C66.1354 78.139 65.9789 78.1435 65.8353 78.0946Z" fill="#0E71BA"/>
<path d="M68.7935 82.3881L62.4025 79.1133C62.2789 79.0252 62.1911 78.8956 62.1552 78.7481C62.1193 78.6006 62.1375 78.4451 62.2067 78.31C62.2759 78.1748 62.3913 78.0691 62.5319 78.0121C62.6726 77.9551 62.829 77.9506 62.9726 77.9994L69.3637 81.2743C69.4873 81.3624 69.5751 81.492 69.611 81.6395C69.6469 81.787 69.6287 81.9425 69.5595 82.0776C69.4903 82.2127 69.3749 82.3185 69.2343 82.3755C69.0936 82.4325 68.9372 82.437 68.7935 82.3881V82.3881Z" fill="#0E71BA"/>
<path d="M78.761 72.0778L68.6549 66.8994C68.5314 66.8113 68.4436 66.6817 68.4076 66.5342C68.3717 66.3867 68.39 66.2312 68.4591 66.0961C68.5283 65.961 68.6437 65.8552 68.7844 65.7982C68.925 65.7412 69.0814 65.7367 69.2251 65.7856L79.3311 70.964C79.4547 71.0521 79.5425 71.1817 79.5784 71.3292C79.6144 71.4767 79.5961 71.6322 79.5269 71.7673C79.4578 71.9024 79.3423 72.0082 79.2017 72.0652C79.0611 72.1222 78.9047 72.1267 78.761 72.0778Z" fill="#0E71BA"/>
<path d="M69.8348 70.2819L67.5285 69.1001C67.4049 69.012 67.3171 68.8824 67.2812 68.7349C67.2452 68.5874 67.2635 68.4319 67.3327 68.2968C67.4018 68.1617 67.5173 68.0559 67.6579 67.9989C67.7985 67.9419 67.955 67.9374 68.0986 67.9863L70.4049 69.168C70.5285 69.2561 70.6163 69.3858 70.6522 69.5332C70.6882 69.6807 70.6699 69.8362 70.6007 69.9713C70.5315 70.1065 70.4161 70.2122 70.2755 70.2692C70.1349 70.3262 69.9784 70.3307 69.8348 70.2819Z" fill="#0E71BA"/>
<path d="M72.793 74.5754L66.402 71.3005C66.2784 71.2124 66.1907 71.0828 66.1547 70.9353C66.1188 70.7878 66.137 70.6323 66.2062 70.4972C66.2754 70.3621 66.3908 70.2564 66.5314 70.1994C66.6721 70.1424 66.8285 70.1379 66.9722 70.1867L73.3632 73.4615C73.4868 73.5496 73.5746 73.6793 73.6105 73.8268C73.6464 73.9742 73.6282 74.1297 73.559 74.2649C73.4898 74.4 73.3744 74.5057 73.2338 74.5627C73.0932 74.6197 72.9367 74.6242 72.7931 74.5754L72.793 74.5754Z" fill="#0E71BA"/>
<path d="M58.0732 74.9283L54.2793 60.7969L64.4177 58.8767L63.8725 68.5764L77.1935 82.2997C77.8987 82.2709 78.5971 82.448 79.2035 82.8094C79.8099 83.1708 80.298 83.7009 80.6085 84.3351C80.9189 84.9693 81.0383 85.6802 80.9519 86.381C80.8655 87.0819 80.5772 87.7425 80.1221 88.2822C79.6669 88.822 79.0647 89.2176 78.3887 89.4208C77.7128 89.624 76.9923 89.626 76.3152 89.4267C75.6381 89.2273 75.0336 88.8351 74.5755 88.2979C74.1173 87.7608 73.8252 87.1018 73.7349 86.4015L58.0732 74.9283Z" fill="#A0616A"/>
<path d="M53.2421 44.9527C49.8008 47.6709 54.2177 62.8751 54.2177 62.8751C54.9016 62.1242 55.6963 73.2218 56.5322 72.844C58.9078 71.77 63.2621 68.0666 64.9408 68.3685C65.9008 68.5411 64.895 61.028 64.895 61.028C64.895 61.028 64.71 56.7201 64.3623 51.1822C64.2931 49.6147 63.8285 48.0903 63.012 46.7507C62.1954 45.4112 61.0534 44.3001 59.6923 43.521C59.6923 43.521 56.6834 42.2346 53.2421 44.9527Z" fill="#3F3D56"/>
<path d="M110.503 106.294L101.339 101.965C101.143 101.873 100.97 101.737 100.834 101.569C100.697 101.401 100.601 101.203 100.552 100.993C100.502 100.786 100.5 100.571 100.545 100.364C100.59 100.157 100.682 99.9621 100.813 99.7952C103.467 96.4008 105.29 92.4312 106.135 88.2049C106.199 87.8812 106.373 87.5898 106.628 87.3802C106.882 87.1706 107.202 87.0558 107.531 87.0554C112.205 87.0713 115.698 88.7788 117.913 92.1298C118.03 92.3042 118.107 92.5018 118.14 92.7091C118.173 92.9164 118.16 93.1284 118.102 93.3301C116.819 97.753 114.868 101.953 112.315 105.785C112.125 106.075 111.837 106.286 111.504 106.38C111.171 106.473 110.815 106.443 110.503 106.294Z" fill="#E6E6E6"/>
<path d="M113.199 100.222L106.191 96.911C106.017 96.8287 105.883 96.6804 105.818 96.4988C105.752 96.3173 105.762 96.1173 105.845 95.9429C105.927 95.7684 106.075 95.6339 106.256 95.5688C106.438 95.5037 106.638 95.5134 106.812 95.5958L113.819 98.9063C113.906 98.9471 113.983 99.0045 114.047 99.0752C114.111 99.1459 114.161 99.2286 114.193 99.3185C114.225 99.4084 114.24 99.5038 114.235 99.5992C114.23 99.6946 114.207 99.7881 114.166 99.8745C114.125 99.9608 114.068 100.038 113.997 100.102C113.927 100.167 113.844 100.216 113.754 100.249C113.664 100.281 113.569 100.295 113.474 100.29C113.378 100.286 113.285 100.262 113.199 100.222H113.199Z" fill="white"/>
<path d="M114.287 97.9151L107.28 94.6046C107.106 94.5223 106.971 94.374 106.906 94.1924C106.841 94.0109 106.851 93.8109 106.933 93.6365C107.016 93.462 107.164 93.3275 107.345 93.2624C107.527 93.1973 107.727 93.207 107.901 93.2894L114.908 96.5999C115.082 96.6822 115.217 96.8305 115.282 97.0121C115.347 97.1937 115.337 97.3936 115.255 97.5681C115.173 97.7425 115.025 97.877 114.843 97.9421C114.662 98.0072 114.462 97.9975 114.287 97.9152V97.9151Z" fill="white"/>
<path d="M104.924 25.5145L104.272 25.586C101.364 14.1517 95.7268 6.23024 87.9698 2.67768C78.1088 -1.83825 65.9152 1.19428 53.6351 11.2168C41.2927 21.2905 30.3664 37.2025 22.8692 56.0225L22.2363 55.7327C29.7664 36.8305 40.7488 20.8416 53.1604 10.7119C65.6342 0.531044 78.0767 -2.52373 88.1957 2.11045C96.1752 5.76481 101.96 13.8578 104.924 25.5145Z" fill="#F2F2F2"/>
<path d="M32.9635 40.406C31.2578 44.0012 29.6353 47.7258 28.1412 51.4764C19.5433 73.0593 15.1862 95.1012 15.5423 115.22L14.8703 115.149C14.5139 94.9546 18.8835 72.8368 27.5083 51.1866C29.0067 47.4255 30.6338 43.6903 32.3444 40.085L32.9635 40.406Z" fill="#F2F2F2"/>
<path d="M32.6408 55.2361C30.935 58.8313 29.3126 62.5559 27.8184 66.3065C19.2205 87.8894 14.8634 109.931 15.2195 130.05L14.5475 129.979C14.1911 109.785 18.5607 87.6669 27.1856 66.0167C28.684 62.2556 30.311 58.5204 32.0217 54.915L32.6408 55.2361Z" fill="#F2F2F2"/>
<path d="M14.5797 60.6295C15.3225 59.5124 14.8828 57.9133 13.5976 57.0578C12.3124 56.2023 10.6684 56.4144 9.92558 57.5315C9.18275 58.6486 9.62242 60.2477 10.9076 61.1032C12.1928 61.9587 13.8368 61.7466 14.5797 60.6295Z" fill="#CCCCCC"/>
<path d="M172.756 100.971C173.499 99.854 173.06 98.2549 171.774 97.3994C170.489 96.5439 168.845 96.756 168.102 97.8731C167.36 98.9902 167.799 100.589 169.084 101.445C170.37 102.3 172.014 102.088 172.756 100.971Z" fill="#CCCCCC"/>
</g>
<defs>
<clipPath id="clip0_20_15">
<rect width="208" height="168.787" fill="white"/>
</clipPath>
</defs>
</svg>
