<svg width="193" height="174" viewBox="0 0 193 174" fill="none" xmlns="http://www.w3.org/2000/svg">
<g clip-path="url(#clip0_20_72)">
<path d="M84.0577 143.907H3.81061C2.80032 143.906 1.83174 143.504 1.11736 142.789C0.402977 142.075 0.00113701 141.106 0 140.096V31.1573C0.00113701 30.147 0.402977 29.1784 1.11736 28.464C1.83174 27.7497 2.80032 27.3478 3.81061 27.3467H84.0577C85.068 27.3478 86.0366 27.7497 86.7509 28.464C87.4653 29.1784 87.8672 30.147 87.8683 31.1573V140.096C87.8672 141.106 87.4653 142.075 86.7509 142.789C86.0366 143.504 85.068 143.906 84.0577 143.907Z" fill="white"/>
<path d="M40.3166 55.6984C40.3167 58.8446 39.3213 61.9103 37.4731 64.4565C35.6249 67.0027 33.0186 68.8989 30.0272 69.8738C29.9377 69.9023 29.8483 69.9307 29.7575 69.9578C29.37 70.0771 28.9771 70.1787 28.5773 70.2654C27.854 70.4224 27.1198 70.5243 26.381 70.5703C26.0599 70.5919 25.737 70.6028 25.4122 70.6028C23.7342 70.6044 22.0681 70.3222 20.4842 69.7681C20.4382 69.7519 20.3922 69.7356 20.3474 69.7194C17.7813 68.7926 15.5187 67.1792 13.8063 65.0551C12.0939 62.931 10.9973 60.3777 10.6361 57.6733C10.2749 54.9689 10.6628 52.2173 11.7577 49.7182C12.8526 47.2191 14.6124 45.0685 16.8454 43.5007C19.0783 41.9329 21.6987 41.008 24.4211 40.8268C27.1435 40.6457 29.8634 41.2152 32.2844 42.4734C34.7053 43.7315 36.7346 45.63 38.1509 47.962C39.5672 50.294 40.3164 52.97 40.3166 55.6984V55.6984Z" fill="white"/>
<path d="M25.0553 65.5732C29.0602 65.5732 32.3068 62.3266 32.3068 58.3216C32.3068 54.3167 29.0602 51.0701 25.0553 51.0701C21.0503 51.0701 17.8037 54.3167 17.8037 58.3216C17.8037 62.3266 21.0503 65.5732 25.0553 65.5732Z" fill="#0E71BA"/>
<path d="M25.4786 62.2287L25.4861 61.9577C24.982 61.9436 24.5375 61.912 24.2036 61.668C24.1089 61.5949 24.031 61.5023 23.9754 61.3964C23.9197 61.2905 23.8875 61.1739 23.8809 61.0545C23.875 60.9815 23.8861 60.9081 23.9132 60.8401C23.9402 60.7721 23.9826 60.7112 24.0371 60.6623C24.1633 60.5858 24.3077 60.5447 24.4553 60.5434C24.6028 60.5421 24.748 60.5806 24.8755 60.6549L25.0997 60.7577L24.6698 57.6155L24.4013 57.6523L24.767 60.3251C24.6173 60.2696 24.4561 60.2524 24.298 60.2751C24.14 60.2979 23.9901 60.3598 23.8622 60.4553C23.7761 60.5305 23.7085 60.6245 23.6648 60.7301C23.6211 60.8357 23.6024 60.95 23.6101 61.064C23.618 61.2245 23.6609 61.3813 23.7358 61.5234C23.8107 61.6656 23.9158 61.7896 24.0437 61.8869C24.4728 62.2005 25.0305 62.2161 25.4786 62.2287Z" fill="#2F2E41"/>
<path d="M23.0733 57.8828H21.6138V58.1538H23.0733V57.8828Z" fill="#2F2E41"/>
<path d="M27.6802 57.8828H26.2207V58.1538H27.6802V57.8828Z" fill="#2F2E41"/>
<path d="M27.1151 68.4593C27.1343 68.3702 27.1443 68.2794 27.1449 68.1883C27.1444 67.8471 27.0086 67.52 26.7673 67.2787C26.5261 67.0375 26.199 66.9017 25.8577 66.9011H23.9608C23.6195 66.9014 23.2923 67.0371 23.051 67.2785C22.8096 67.5198 22.6739 67.847 22.6736 68.1883C22.6735 68.2799 22.6835 68.3713 22.7034 68.4607C21.9873 68.6863 21.3104 69.0213 20.6968 69.4539C20.5775 69.5365 20.4596 69.6259 20.3472 69.7194C20.3919 69.7357 20.4379 69.7519 20.484 69.7682C22.0678 70.3223 23.734 70.6045 25.4119 70.6028C25.7371 70.6028 26.06 70.592 26.3807 70.5703C27.1195 70.5243 27.8537 70.4224 28.5771 70.2654C28.9768 70.1787 29.3697 70.0771 29.7572 69.9579C28.9906 69.2797 28.0906 68.7692 27.1151 68.4593Z" fill="#2F2E41"/>
<path d="M26.8714 70.3982C26.6955 70.4111 26.5263 70.4705 26.3809 70.5702C27.1196 70.5243 27.8539 70.4223 28.5772 70.2654L26.8714 70.3982Z" fill="#2F2E41"/>
<path d="M31.632 56.599L19.0345 51.9905C18.8995 51.9411 18.7896 51.8401 18.7291 51.7097C18.6686 51.5794 18.6623 51.4303 18.7117 51.2953L18.7543 51.0938C19.7382 48.4045 22.9991 46.7119 25.6884 47.6958L29.5649 49.1139C32.2543 50.0978 33.4231 53.2823 32.4393 55.9716L32.3271 56.2762C32.2778 56.4112 32.1768 56.5211 32.0464 56.5816C31.916 56.6421 31.767 56.6484 31.632 56.599Z" fill="#2F2E41"/>
<path d="M32.3105 56.8547C14.7521 57.5025 13.2179 55.2964 18.5678 51.8272L19.7028 49.7388L32.7103 54.4811L32.3105 56.8547Z" fill="#2F2E41"/>
<path d="M28.8673 48.7833C28.9642 48.4608 28.549 48.0509 27.9398 47.8678C27.3307 47.6847 26.7583 47.7977 26.6614 48.1202C26.5644 48.4427 26.9797 48.8525 27.5888 49.0356C28.1979 49.2187 28.7703 49.1058 28.8673 48.7833Z" fill="#2F2E41"/>
<path d="M25.412 71.0094C23.6883 71.0113 21.9766 70.7214 20.3496 70.1519L20.2082 70.1015C16.8003 68.8699 13.9396 66.4695 12.1349 63.3272C10.3302 60.1848 9.6986 56.5043 10.3523 52.94C11.006 49.3758 12.9026 46.1589 15.705 43.8615C18.5073 41.5641 22.0336 40.3351 25.6569 40.3931C29.2801 40.451 32.7653 41.7922 35.4927 44.178C38.2202 46.5638 40.013 49.8397 40.5524 53.423C41.0917 57.0063 40.3427 60.6648 38.4385 63.7478C36.5342 66.8309 33.5983 69.1386 30.1526 70.2605C30.0564 70.2912 29.9657 70.32 29.8736 70.3475C29.4888 70.4659 29.0805 70.5723 28.6633 70.6627C27.9198 70.8239 27.1651 70.9287 26.4058 70.9761C26.0795 70.9982 25.7444 71.0094 25.412 71.0094ZM25.412 41.2006C22.0004 41.2011 18.6982 42.4045 16.0863 44.5991C13.4743 46.7938 11.7198 49.8392 11.1314 53.1997C10.543 56.5601 11.1583 60.0205 12.8692 62.9721C14.58 65.9237 17.2768 68.1775 20.4853 69.3372L20.6195 69.385C22.1598 69.924 23.7802 70.1983 25.412 70.1964C25.7262 70.1964 26.0429 70.1858 26.3534 70.1648C27.0724 70.12 27.7871 70.0208 28.4912 69.8682C28.8858 69.7827 29.2716 69.6821 29.6378 69.5695C29.7285 69.5424 29.8145 69.515 29.9006 69.4876C33.1824 68.4187 35.9752 66.2143 37.7771 63.2705C39.579 60.3268 40.2717 56.8369 39.7308 53.4281C39.1899 50.0193 37.4508 46.9153 34.8262 44.674C32.2015 42.4326 28.8634 41.201 25.412 41.2006Z" fill="#CCCCCC"/>
<path d="M84.0577 143.907H3.81061C2.80032 143.906 1.83174 143.504 1.11736 142.789C0.402977 142.075 0.00113701 141.106 0 140.096V31.1573C0.00113701 30.147 0.402977 29.1784 1.11736 28.464C1.83174 27.7497 2.80032 27.3478 3.81061 27.3467H84.0577C85.068 27.3478 86.0366 27.7497 86.7509 28.464C87.4653 29.1784 87.8672 30.147 87.8683 31.1573V140.096C87.8672 141.106 87.4653 142.075 86.7509 142.789C86.0366 143.504 85.068 143.906 84.0577 143.907ZM3.81061 27.795C2.91918 27.796 2.06456 28.1506 1.43422 28.7809C0.803888 29.4112 0.449319 30.2659 0.448308 31.1573V140.096C0.449318 140.987 0.80388 141.842 1.43422 142.472C2.06455 143.103 2.91918 143.457 3.81061 143.458H84.0577C84.9491 143.457 85.8037 143.103 86.4341 142.472C87.0644 141.842 87.419 140.987 87.42 140.096V31.1573C87.419 30.2659 87.0644 29.4112 86.4341 28.7809C85.8037 28.1506 84.9491 27.796 84.0577 27.795H3.81061Z" fill="#CCCCCC"/>
<path d="M68.5228 55.6404H45.8157C45.3396 55.6398 44.8833 55.4503 44.5469 55.1135C44.2104 54.7766 44.0215 54.3201 44.0215 53.844C44.0215 53.368 44.2104 52.9114 44.5469 52.5745C44.8833 52.2377 45.3396 52.0482 45.8157 52.0476H68.5228C68.7589 52.0473 68.9927 52.0936 69.2109 52.1837C69.4292 52.2739 69.6275 52.4061 69.7945 52.573C69.9615 52.7398 70.0941 52.9379 70.1845 53.156C70.2749 53.3741 70.3214 53.6079 70.3214 53.844C70.3214 54.0801 70.2749 54.3139 70.1845 54.532C70.0941 54.7501 69.9615 54.9482 69.7945 55.115C69.6275 55.2819 69.4292 55.4141 69.2109 55.5043C68.9927 55.5944 68.7589 55.6407 68.5228 55.6404Z" fill="#E6E6E6"/>
<path d="M75.9329 61.7031H45.8157C45.3396 61.7026 44.8833 61.513 44.5469 61.1762C44.2104 60.8394 44.0215 60.3828 44.0215 59.9068C44.0215 59.4307 44.2104 58.9741 44.5469 58.6373C44.8833 58.3005 45.3396 58.1109 45.8157 58.1104H75.9329C76.409 58.1109 76.8653 58.3005 77.2017 58.6373C77.5381 58.9741 77.7271 59.4307 77.7271 59.9068C77.7271 60.3828 77.5381 60.8394 77.2017 61.1762C76.8653 61.513 76.409 61.7026 75.9329 61.7031Z" fill="#E6E6E6"/>
<path d="M68.4897 84.9568H11.9353C11.6992 84.9571 11.4654 84.9108 11.2472 84.8207C11.029 84.7306 10.8307 84.5983 10.6637 84.4314C10.4966 84.2646 10.3641 84.0665 10.2737 83.8484C10.1833 83.6303 10.1367 83.3965 10.1367 83.1604C10.1367 82.9243 10.1833 82.6905 10.2737 82.4724C10.3641 82.2543 10.4966 82.0562 10.6637 81.8894C10.8307 81.7225 11.029 81.5903 11.2472 81.5001C11.4654 81.41 11.6992 81.3637 11.9353 81.364H68.4897C68.9658 81.3646 69.4221 81.5541 69.7585 81.8909C70.0949 82.2278 70.2839 82.6844 70.2839 83.1604C70.2839 83.6365 70.0949 84.093 69.7585 84.4299C69.4221 84.7667 68.9658 84.9562 68.4897 84.9568Z" fill="#E6E6E6"/>
<path d="M75.8998 91.0196H11.9353C11.6992 91.0198 11.4654 90.9736 11.2472 90.8835C11.029 90.7933 10.8307 90.661 10.6637 90.4942C10.4966 90.3273 10.3641 90.1292 10.2737 89.9111C10.1833 89.693 10.1367 89.4592 10.1367 89.2232C10.1367 88.9871 10.1833 88.7533 10.2737 88.5352C10.3641 88.3171 10.4966 88.119 10.6637 87.9521C10.8307 87.7853 11.029 87.653 11.2472 87.5629C11.4654 87.4727 11.6992 87.4265 11.9353 87.4268H75.8998C76.1359 87.4265 76.3698 87.4727 76.588 87.5629C76.8062 87.653 77.0045 87.7853 77.1715 87.9521C77.3386 88.119 77.4711 88.3171 77.5615 88.5352C77.6519 88.7533 77.6985 88.9871 77.6985 89.2232C77.6985 89.4592 77.6519 89.693 77.5615 89.9111C77.4711 90.1292 77.3386 90.3273 77.1715 90.4942C77.0045 90.661 76.8062 90.7933 76.588 90.8835C76.3698 90.9736 76.1359 91.0198 75.8998 91.0196Z" fill="#E6E6E6"/>
<path d="M68.4899 104.954H11.9356C11.4591 104.954 11.0022 104.765 10.6653 104.428C10.3284 104.091 10.1392 103.634 10.1392 103.158C10.1392 102.681 10.3284 102.224 10.6653 101.887C11.0022 101.551 11.4591 101.361 11.9356 101.361H68.4899C68.9664 101.361 69.4233 101.551 69.7602 101.887C70.0971 102.224 70.2863 102.681 70.2863 103.158C70.2863 103.634 70.0971 104.091 69.7602 104.428C69.4233 104.765 68.9664 104.954 68.4899 104.954Z" fill="#E6E6E6"/>
<path d="M75.9 111.017H11.9356C11.4591 111.017 11.0022 110.828 10.6653 110.491C10.3284 110.154 10.1392 109.697 10.1392 109.221C10.1392 108.744 10.3284 108.287 10.6653 107.95C11.0022 107.614 11.4591 107.424 11.9356 107.424H75.9C76.3765 107.424 76.8334 107.614 77.1703 107.95C77.5072 108.287 77.6964 108.744 77.6964 109.221C77.6964 109.697 77.5072 110.154 77.1703 110.491C76.8334 110.828 76.3765 111.017 75.9 111.017Z" fill="#E6E6E6"/>
<path d="M68.4899 124.952H11.9356C11.4591 124.952 11.0022 124.762 10.6653 124.426C10.3284 124.089 10.1392 123.632 10.1392 123.155C10.1392 122.679 10.3284 122.222 10.6653 121.885C11.0022 121.548 11.4591 121.359 11.9356 121.359H68.4899C68.9664 121.359 69.4233 121.548 69.7602 121.885C70.0971 122.222 70.2863 122.679 70.2863 123.155C70.2863 123.632 70.0971 124.089 69.7602 124.426C69.4233 124.762 68.9664 124.952 68.4899 124.952Z" fill="#E6E6E6"/>
<path d="M75.9 131.015H11.9356C11.4591 131.015 11.0022 130.825 10.6653 130.489C10.3284 130.152 10.1392 129.695 10.1392 129.218C10.1392 128.742 10.3284 128.285 10.6653 127.948C11.0022 127.611 11.4591 127.422 11.9356 127.422H75.9C76.3765 127.422 76.8334 127.611 77.1703 127.948C77.5072 128.285 77.6964 128.742 77.6964 129.218C77.6964 129.695 77.5072 130.152 77.1703 130.489C76.8334 130.825 76.3765 131.015 75.9 131.015Z" fill="#E6E6E6"/>
<path d="M188.513 116.56L108.266 116.56C107.256 116.559 106.287 116.157 105.573 115.443C104.859 114.728 104.457 113.76 104.456 112.749L104.456 3.81068C104.457 2.80039 104.859 1.83181 105.573 1.11743C106.287 0.403044 107.256 0.00120081 108.266 6.30685e-05L188.513 0C189.524 0.00113628 190.492 0.402973 191.206 1.11736C191.921 1.83174 192.323 2.80032 192.324 3.81061L192.324 112.749C192.323 113.76 191.921 114.728 191.207 115.443C190.492 116.157 189.524 116.559 188.513 116.56Z" fill="white"/>
<path d="M188.513 116.56L108.266 116.56C107.256 116.559 106.287 116.157 105.573 115.443C104.859 114.728 104.457 113.76 104.456 112.749L104.456 3.81068C104.457 2.80039 104.859 1.83181 105.573 1.11743C106.287 0.403044 107.256 0.00120081 108.266 6.30685e-05L188.513 0C189.524 0.00113628 190.492 0.402973 191.206 1.11736C191.921 1.83174 192.323 2.80032 192.324 3.81061L192.324 112.749C192.323 113.76 191.921 114.728 191.207 115.443C190.492 116.157 189.524 116.559 188.513 116.56ZM108.266 0.448371C107.375 0.449382 106.52 0.80395 105.89 1.43429C105.259 2.06462 104.905 2.91925 104.904 3.81068L104.904 112.749C104.905 113.641 105.26 114.495 105.89 115.126C106.52 115.756 107.375 116.111 108.266 116.112L188.513 116.112C189.405 116.111 190.259 115.756 190.89 115.126C191.52 114.495 191.875 113.641 191.876 112.749L191.876 3.81062C191.875 2.91919 191.52 2.06456 190.89 1.43422C190.259 0.803883 189.405 0.449317 188.513 0.448308L108.266 0.448371Z" fill="#CCCCCC"/>
<path d="M144.81 28.2032C144.81 31.1511 143.936 34.0327 142.298 36.4837C140.66 38.9347 138.333 40.8451 135.609 41.9731C132.886 43.1012 129.889 43.3964 126.998 42.8213C124.107 42.2462 121.451 40.8267 119.366 38.7423C117.282 36.6579 115.862 34.0021 115.287 31.111C114.712 28.2198 115.007 25.223 116.136 22.4996C117.264 19.7762 119.174 17.4484 121.625 15.8107C124.076 14.173 126.958 13.2988 129.905 13.2988C133.858 13.3001 137.648 14.8708 140.443 17.6656C143.238 20.4605 144.809 24.2507 144.81 28.2032Z" fill="white"/>
<path d="M136.794 30.7533C136.631 40.2855 122.452 40.284 122.291 30.753C122.454 21.2212 136.633 21.2227 136.794 30.7533Z" fill="#0E71BA"/>
<path d="M129.255 33.7121L129.247 33.4411C131.115 33.6904 131.517 31.3757 129.633 32.2411L130.063 29.0989L130.332 29.1357L129.966 31.8085C131.949 31.5133 131.216 33.9829 129.255 33.7121Z" fill="#2F2E41"/>
<path d="M133.119 29.3662H131.66V29.6372H133.119V29.3662Z" fill="#2F2E41"/>
<path d="M128.512 29.3662H127.053V29.6372H128.512V29.3662Z" fill="#2F2E41"/>
<path d="M131.893 40.8922C132.178 38.9722 129.93 39.3516 128.74 39.3326C128.548 39.3332 128.359 39.3766 128.186 39.4596C128.013 39.5426 127.861 39.6631 127.741 39.8124C127.62 39.9617 127.534 40.1359 127.49 40.3225C127.445 40.509 127.443 40.7032 127.483 40.8908C126.562 41.1754 125.709 41.6458 124.978 42.2729C128.062 43.3483 131.413 43.3854 134.52 42.3785C133.763 41.6983 132.866 41.1911 131.893 40.8922Z" fill="#2F2E41"/>
<path d="M126.133 27.3237C127.477 26.547 129.107 27.1429 130.495 27.4686C133.129 28.2783 136.822 27.2644 137.142 24.127C137.476 21.2091 133.484 19.5829 132.208 22.487L132.58 22.4385C128.442 16.2894 121.245 16.5226 121.292 24.9765C121.277 25.2376 121.684 25.2368 121.699 24.9763C121.546 19.9946 124.843 16.5892 129.504 19.7907C130.545 20.6056 131.463 21.5664 132.229 22.6436C132.714 23.1876 132.82 20.845 135.143 21.4586C137.699 22.449 136.865 26.1099 134.58 26.9136C131.757 28.3561 128.699 25.5592 125.928 26.9725C125.883 27.0007 125.851 27.0451 125.839 27.0963C125.826 27.1476 125.834 27.2017 125.861 27.2472C125.888 27.2928 125.931 27.3262 125.982 27.3405C126.032 27.3547 126.087 27.3487 126.133 27.3237Z" fill="#2F2E41"/>
<path d="M129.905 43.514C126.056 43.5108 122.35 42.0568 119.526 39.4421C116.701 36.8273 114.966 33.244 114.667 29.4068C114.367 25.5695 115.525 21.7603 117.909 18.7389C120.294 15.7175 123.729 13.7059 127.531 13.1054C131.333 12.5048 135.221 13.3594 138.421 15.4987C141.621 17.638 143.896 20.9048 144.794 24.6476C145.692 28.3904 145.146 32.334 143.265 35.692C141.384 39.0501 138.306 41.5757 134.646 42.7652C133.115 43.263 131.515 43.5158 129.905 43.514ZM129.905 13.7052C127.037 13.7048 124.234 14.5549 121.849 16.148C119.464 17.7412 117.605 20.0057 116.507 22.6553C115.41 25.3049 115.122 28.2206 115.682 31.0335C116.241 33.8464 117.622 36.4303 119.65 38.4582C121.678 40.4862 124.262 41.8672 127.075 42.4267C129.888 42.9861 132.803 42.6988 135.453 41.601C138.103 40.5033 140.367 38.6445 141.96 36.2597C143.553 33.8748 144.404 31.0711 144.403 28.2031C144.399 24.3594 142.87 20.6743 140.152 17.9563C137.434 15.2384 133.749 13.7095 129.905 13.7052Z" fill="#CCCCCC"/>
<path d="M172.978 28.2935L150.271 28.2935C149.795 28.2935 149.338 28.1042 149.001 27.7673C148.664 27.4304 148.475 26.9735 148.475 26.4971C148.475 26.0207 148.664 25.5637 149.001 25.2269C149.338 24.89 149.795 24.7007 150.271 24.7007L172.978 24.7007C173.455 24.7007 173.912 24.8899 174.248 25.2268C174.585 25.5637 174.775 26.0206 174.775 26.4971C174.775 26.9735 174.585 27.4304 174.248 27.7673C173.912 28.1042 173.455 28.2935 172.978 28.2935Z" fill="#E6E6E6"/>
<path d="M180.389 34.3565L150.271 34.3565C150.035 34.3568 149.801 34.3105 149.583 34.2204C149.365 34.1302 149.167 33.998 149 33.8311C148.833 33.6643 148.7 33.4662 148.61 33.2481C148.519 33.03 148.473 32.7962 148.473 32.5601C148.473 32.324 148.519 32.0902 148.61 31.8721C148.7 31.654 148.833 31.4559 149 31.2891C149.167 31.1222 149.365 30.9899 149.583 30.8998C149.801 30.8097 150.035 30.7634 150.271 30.7637L180.389 30.7637C180.865 30.7637 181.322 30.9529 181.659 31.2898C181.996 31.6267 182.185 32.0836 182.185 32.5601C182.185 33.0365 181.996 33.4934 181.659 33.8303C181.322 34.1672 180.865 34.3565 180.389 34.3565Z" fill="#E6E6E6"/>
<path d="M172.945 57.6099L116.391 57.6099C115.915 57.6093 115.458 57.4198 115.122 57.083C114.786 56.7462 114.597 56.2896 114.597 55.8135C114.597 55.3375 114.786 54.8809 115.122 54.5441C115.458 54.2072 115.915 54.0177 116.391 54.0171L172.945 54.0171C173.422 54.0171 173.879 54.2064 174.215 54.5432C174.552 54.8801 174.742 55.337 174.742 55.8135C174.742 56.2899 174.552 56.7468 174.215 57.0837C173.879 57.4206 173.422 57.6099 172.945 57.6099Z" fill="#E6E6E6"/>
<path d="M180.355 63.6726L116.391 63.6727C116.155 63.673 115.921 63.6267 115.703 63.5366C115.485 63.4464 115.286 63.3141 115.119 63.1473C114.952 62.9805 114.82 62.7823 114.729 62.5642C114.639 62.3462 114.592 62.1124 114.592 61.8763C114.592 61.6402 114.639 61.4064 114.729 61.1883C114.82 60.9702 114.952 60.7721 115.119 60.6053C115.286 60.4384 115.485 60.3061 115.703 60.216C115.921 60.1258 116.155 60.0796 116.391 60.0799L180.355 60.0798C180.832 60.0798 181.289 60.2691 181.626 60.606C181.963 60.9429 182.152 61.3998 182.152 61.8762C182.152 62.3527 181.963 62.8096 181.626 63.1465C181.289 63.4834 180.832 63.6726 180.355 63.6726Z" fill="#E6E6E6"/>
<path d="M172.945 77.6074L116.391 77.6075C115.915 77.6069 115.458 77.4174 115.122 77.0805C114.786 76.7437 114.597 76.2871 114.597 75.8111C114.597 75.335 114.786 74.8785 115.122 74.5416C115.458 74.2048 115.915 74.0153 116.391 74.0147L172.945 74.0146C173.422 74.0146 173.879 74.2039 174.215 74.5408C174.552 74.8777 174.742 75.3346 174.742 75.811C174.742 76.2875 174.552 76.7444 174.215 77.0813C173.879 77.4182 173.422 77.6074 172.945 77.6074Z" fill="#E6E6E6"/>
<path d="M180.355 83.6702L116.391 83.6702C116.155 83.6705 115.921 83.6243 115.703 83.5341C115.485 83.444 115.286 83.3117 115.119 83.1449C114.952 82.978 114.82 82.7799 114.729 82.5618C114.639 82.3437 114.592 82.1099 114.592 81.8738C114.592 81.6377 114.639 81.404 114.729 81.1859C114.82 80.9678 114.952 80.7696 115.119 80.6028C115.286 80.436 115.485 80.3037 115.703 80.2135C115.921 80.1234 116.155 80.0772 116.391 80.0774L180.355 80.0774C180.832 80.0774 181.289 80.2667 181.626 80.6035C181.963 80.9404 182.152 81.3974 182.152 81.8738C182.152 82.3502 181.963 82.8071 181.626 83.144C181.289 83.4809 180.832 83.6702 180.355 83.6702Z" fill="#E6E6E6"/>
<path d="M172.946 97.605L116.391 97.605C115.915 97.605 115.458 97.4158 115.121 97.0789C114.784 96.742 114.595 96.2851 114.595 95.8087C114.595 95.3322 114.784 94.8753 115.121 94.5384C115.458 94.2015 115.915 94.0123 116.391 94.0123L172.946 94.0122C173.422 94.0122 173.879 94.2015 174.216 94.5384C174.553 94.8752 174.742 95.3322 174.742 95.8086C174.742 96.285 174.553 96.742 174.216 97.0789C173.879 97.4157 173.422 97.605 172.946 97.605Z" fill="#E6E6E6"/>
<path d="M180.356 103.668L116.391 103.668C115.915 103.668 115.458 103.479 115.121 103.142C114.784 102.805 114.595 102.348 114.595 101.871C114.595 101.395 114.784 100.938 115.121 100.601C115.458 100.264 115.915 100.075 116.391 100.075L180.356 100.075C180.832 100.075 181.289 100.264 181.626 100.601C181.963 100.938 182.152 101.395 182.152 101.871C182.152 102.348 181.963 102.805 181.626 103.142C181.289 103.478 180.832 103.668 180.356 103.668Z" fill="#E6E6E6"/>
<path d="M140.096 163.408H59.8492C58.8389 163.407 57.8703 163.005 57.1559 162.291C56.4415 161.576 56.0397 160.608 56.0386 159.598V50.6588C56.0397 49.6485 56.4415 48.6799 57.1559 47.9655C57.8703 47.2511 58.8389 46.8493 59.8492 46.8481H140.096C141.107 46.8493 142.075 47.2511 142.79 47.9655C143.504 48.6799 143.906 49.6485 143.907 50.6588V159.598C143.906 160.608 143.504 161.576 142.79 162.291C142.075 163.005 141.107 163.407 140.096 163.408Z" fill="white"/>
<path d="M66.542 74.8934C66.5394 76.8551 66.9253 78.798 67.6774 80.6098C68.4294 82.4216 69.5328 84.0666 70.9239 85.4498C71.0405 85.565 71.1597 85.6802 71.2802 85.7926C72.0066 86.4713 72.7992 87.0754 73.646 87.5961C73.8086 87.6963 73.9712 87.7925 74.1379 87.886C74.9943 88.3687 75.8966 88.7649 76.8315 89.0689C76.9927 89.1217 77.1566 89.1719 77.3206 89.2179C80.2924 90.0702 83.4552 89.9812 86.3744 88.9632C86.4313 88.9429 86.4882 88.9226 86.5438 88.9022C89.1063 87.97 91.3641 86.3526 93.0712 84.2261C94.7783 82.0997 95.8694 79.5457 96.2257 76.8422C96.5819 74.1387 96.1898 71.3892 95.0918 68.8932C93.9939 66.3971 92.2322 64.25 89.9987 62.6857C87.7651 61.1213 85.1452 60.1997 82.4242 60.021C79.7032 59.8424 76.9853 60.4136 74.5664 61.6725C72.1474 62.9314 70.1202 64.8297 68.7054 67.1608C67.2905 69.492 66.5422 72.1665 66.542 74.8934Z" fill="white"/>
<path d="M78.2988 82.1987C78.306 83.3534 77.8804 84.469 77.1059 85.3254C76.3395 86.1664 75.1986 86.7242 74.0473 86.4934C72.9872 86.2809 72.1257 85.3544 72.2332 84.2335C72.251 83.9907 72.3216 83.7547 72.44 83.542C72.5584 83.3292 72.7217 83.1449 72.9186 83.0018C73.1156 82.8587 73.3413 82.7602 73.5802 82.7133C73.8191 82.6664 74.0653 82.6721 74.3018 82.7301C75.3088 82.9915 75.7101 84.4429 74.8709 85.1242C74.6695 85.2876 74.3802 85.0017 74.5835 84.8367C74.7088 84.7221 74.8034 84.5779 74.8585 84.4173C74.9137 84.2567 74.9277 84.0848 74.8992 83.9173C74.8707 83.7499 74.8007 83.5923 74.6955 83.459C74.5904 83.3256 74.4534 83.2208 74.2973 83.154C74.113 83.095 73.9177 83.0787 73.7261 83.1064C73.5346 83.134 73.3519 83.2049 73.1918 83.3135C73.0317 83.4222 72.8984 83.5659 72.8021 83.7337C72.7057 83.9015 72.6488 84.089 72.6356 84.2821C72.5691 85.2271 73.2931 85.9387 74.1808 86.1063C75.1412 86.2875 76.0934 85.796 76.7441 85.1175C77.4899 84.3297 77.9014 83.2835 77.8923 82.1987C77.8941 82.146 77.9163 82.096 77.9542 82.0594C77.9921 82.0227 78.0428 82.0022 78.0955 82.0022C78.1483 82.0022 78.199 82.0227 78.2369 82.0594C78.2748 82.096 78.297 82.146 78.2988 82.1987V82.1987Z" fill="#2F2E41"/>
<path d="M82.2677 84.7827C86.2726 84.7827 89.5192 81.536 89.5192 77.5311C89.5192 73.5262 86.2726 70.2795 82.2677 70.2795C78.2627 70.2795 75.0161 73.5262 75.0161 77.5311C75.0161 81.536 78.2627 84.7827 82.2677 84.7827Z" fill="#0E71BA"/>
<path d="M81.8967 80.6254L81.8892 80.3544C82.3933 80.3404 82.8377 80.3087 83.1717 80.0647C83.2664 79.9916 83.3442 79.899 83.3999 79.7931C83.4556 79.6872 83.4878 79.5706 83.4944 79.4512C83.5003 79.3782 83.4892 79.3048 83.4621 79.2368C83.435 79.1688 83.3926 79.108 83.3382 79.059C83.212 78.9825 83.0675 78.9414 82.92 78.9401C82.7724 78.9388 82.6273 78.9773 82.4998 79.0516L82.2755 79.1544L82.7055 76.0122L82.974 76.049L82.6083 78.7218C82.758 78.6663 82.9192 78.6491 83.0773 78.6718C83.2353 78.6946 83.3851 78.7565 83.5131 78.852C83.5992 78.9272 83.6668 79.0212 83.7105 79.1268C83.7542 79.2324 83.7729 79.3467 83.7652 79.4607C83.7573 79.6212 83.7144 79.778 83.6395 79.9201C83.5646 80.0623 83.4595 80.1863 83.3316 80.2836C82.9025 80.5972 82.3448 80.6128 81.8967 80.6254Z" fill="#2F2E41"/>
<path d="M85.7612 76.2795H84.3018V76.5505H85.7612V76.2795Z" fill="#2F2E41"/>
<path d="M81.1543 76.2795H79.6948V76.5505H81.1543V76.2795Z" fill="#2F2E41"/>
<path d="M77.3203 89.218C80.2921 90.0703 83.4549 89.9813 86.3741 88.9633C86.431 88.9429 86.4879 88.9226 86.5435 88.9023C85.8556 88.3716 85.0776 87.9695 84.2468 87.7153C84.3056 87.507 84.3046 87.2863 84.2441 87.0785C84.1619 86.815 83.9968 86.5852 83.7734 86.4231C83.5501 86.261 83.2803 86.1753 83.0043 86.1788H81.2375C80.962 86.1751 80.6927 86.2605 80.4697 86.4224C80.2468 86.5843 80.0822 86.814 80.0005 87.0772C79.9399 87.2854 79.939 87.5065 79.9977 87.7153C79.266 87.9394 78.5745 88.2783 77.949 88.7193C77.823 88.8074 77.7011 88.8996 77.5832 88.9958C77.4938 89.0676 77.4057 89.1421 77.3203 89.218Z" fill="#2F2E41"/>
<path d="M87.9487 76.7619C87.9487 77.9841 88.5503 78.9976 89.3321 79.1737C89.4117 79.1916 89.4931 79.2006 89.5747 79.2008C90.4703 79.2008 91.2006 78.1074 91.2006 76.7619C91.2208 76.0683 90.9996 75.3892 90.5746 74.8406C90.4424 74.6806 90.2799 74.5484 90.0963 74.4517C89.9352 74.3676 89.7563 74.3235 89.5747 74.323C89.3251 74.3261 89.0829 74.4076 88.8822 74.556C88.3308 74.9463 87.9487 75.7877 87.9487 76.7619Z" fill="#3F3D56"/>
<path d="M73.4509 76.7619C73.4509 77.8133 73.8953 78.7103 74.5186 79.0531C74.6892 79.1487 74.8813 79.1995 75.0769 79.2008C75.1204 79.2008 75.1638 79.1981 75.2069 79.1927C76.0415 79.0938 76.7028 78.0423 76.7028 76.7619C76.7028 75.7362 76.2787 74.8569 75.6798 74.4978C75.4987 74.3853 75.2901 74.3248 75.0769 74.323C74.8952 74.3235 74.7163 74.3676 74.5552 74.4517C74.3711 74.5489 74.2081 74.6815 74.0755 74.842C73.6518 75.3906 73.4311 76.069 73.4509 76.7619Z" fill="#3F3D56"/>
<path d="M74.6198 78.8192C74.6521 78.8192 74.6839 78.8115 74.7126 78.7968C74.7413 78.782 74.7661 78.7607 74.7849 78.7345C74.8037 78.7082 74.816 78.6779 74.8208 78.646C74.8256 78.6141 74.8227 78.5815 74.8125 78.551C74.424 77.3958 74.3072 76.1667 74.471 74.9591C74.6348 73.7515 75.0749 72.5979 75.757 71.588C76.4391 70.5781 77.345 69.7391 78.4041 69.1362C79.4632 68.5333 80.647 68.1828 81.8636 68.1118C83.0802 68.0408 84.2968 68.2513 85.4189 68.7269C86.5409 69.2026 87.5381 69.9306 88.3331 70.8543C89.128 71.778 89.6993 72.8725 90.0024 74.0529C90.3056 75.2333 90.3325 76.4677 90.081 77.6601C90.07 77.7128 90.0803 77.7677 90.1098 77.8128C90.1392 77.8579 90.1853 77.8894 90.238 77.9005C90.2907 77.9117 90.3456 77.9014 90.3907 77.8721C90.4359 77.8427 90.4675 77.7967 90.4787 77.744C90.7433 76.4903 90.7152 75.1924 90.3965 73.9514C90.0779 72.7103 89.4774 71.5594 88.6416 70.5881C87.8059 69.6169 86.7574 68.8515 85.5777 68.3514C84.398 67.8513 83.1188 67.6299 81.8397 67.7046C80.5605 67.7793 79.3158 68.1479 78.2023 68.7818C77.0888 69.4158 76.1365 70.298 75.4194 71.3599C74.7023 72.4218 74.2397 73.6347 74.0677 74.9044C73.8956 76.1742 74.0186 77.4665 74.4273 78.6809C74.4409 78.7212 74.4668 78.7562 74.5013 78.781C74.5359 78.8059 74.5773 78.8192 74.6198 78.8192Z" fill="#3F3D56"/>
<path d="M85.9108 72.8327C86.0311 73.0292 86.0811 73.2607 86.0526 73.4892C86.0241 73.7178 85.9187 73.9299 85.7539 74.0908C85.3602 74.5306 84.7324 74.5583 84.1873 74.4767C83.5756 74.3851 82.9268 74.0985 82.3076 74.2916C81.7798 74.4562 81.4033 74.935 80.8549 75.0552C80.3686 75.1618 79.7871 75.0207 79.6166 74.5024C79.5347 74.2533 79.9271 74.1465 80.0086 74.3943C80.1189 74.7296 80.5951 74.7229 80.8678 74.6301C81.3051 74.4812 81.642 74.1191 82.0718 73.9462C82.5841 73.7875 83.1325 73.7891 83.644 73.9505C84.1301 74.06 84.6897 74.2223 85.174 74.0178C85.5324 73.8664 85.8176 73.3898 85.5598 73.0379C85.4051 72.8266 85.7576 72.6236 85.9108 72.8327V72.8327Z" fill="#2F2E41"/>
<path d="M81.4461 90.2044C80.0123 90.2056 78.5854 90.005 77.2075 89.6085C77.0456 89.563 76.8755 89.5112 76.7046 89.4553C75.7445 89.1427 74.8178 88.7358 73.9381 88.2403C73.7731 88.1478 73.6075 88.0501 73.4323 87.9421C72.5626 87.4071 71.7486 86.7866 71.0023 86.0897C70.8792 85.9748 70.7572 85.8569 70.6379 85.7392C68.291 83.3993 66.7668 80.361 66.2942 77.0808C65.8216 73.8007 66.4261 70.4557 68.0169 67.5485C69.6078 64.6412 72.099 62.3287 75.1164 60.9582C78.1339 59.5878 81.5145 59.2335 84.7505 59.9485C87.9865 60.6635 90.9031 62.4093 93.0621 64.9235C95.2212 67.4377 96.5061 70.5846 96.7239 73.8915C96.9417 77.1984 96.0805 80.4867 94.2698 83.2623C92.4591 86.038 89.7966 88.1511 86.6823 89.2843C86.6264 89.3048 86.5686 89.3254 86.5107 89.346C84.883 89.916 83.1706 90.2062 81.4461 90.2044ZM81.4461 60.3955C78.5766 60.3957 75.7718 61.2472 73.3867 62.8424C71.0015 64.4376 69.1433 66.7046 68.0473 69.3564C66.9514 72.0083 66.6669 74.9257 67.23 77.7393C67.7931 80.5529 69.1784 83.1362 71.2105 85.162C71.323 85.2731 71.4394 85.3856 71.5572 85.4955C72.2639 86.1555 73.0349 86.7432 73.8586 87.2499C74.0245 87.3522 74.1806 87.4442 74.3363 87.5316C75.1695 88.0009 76.0473 88.3864 76.9566 88.6823C77.1175 88.7351 77.2765 88.7835 77.4301 88.8266C80.3216 89.6564 83.3992 89.5701 86.2396 88.5797L86.4039 88.5205C89.607 87.3545 92.2969 85.0974 94.0013 82.1453C95.7057 79.1933 96.3156 75.7351 95.7238 72.3782C95.1321 69.0212 93.3765 65.98 90.7655 63.7887C88.1544 61.5973 84.8548 60.396 81.4461 60.3956L81.4461 60.3955Z" fill="#CCCCCC"/>
<path d="M140.096 163.408H59.8492C58.8389 163.407 57.8703 163.005 57.1559 162.291C56.4415 161.576 56.0397 160.608 56.0386 159.598V50.6588C56.0397 49.6485 56.4415 48.6799 57.1559 47.9655C57.8703 47.2511 58.8389 46.8493 59.8492 46.8481H140.096C141.107 46.8493 142.075 47.2511 142.79 47.9655C143.504 48.6799 143.906 49.6485 143.907 50.6588V159.598C143.906 160.608 143.504 161.576 142.79 162.291C142.075 163.005 141.107 163.407 140.096 163.408ZM59.8492 47.2964C58.9578 47.2975 58.1031 47.652 57.4728 48.2824C56.8425 48.9127 56.4879 49.7673 56.4869 50.6588V159.597C56.4879 160.489 56.8425 161.344 57.4728 161.974C58.1031 162.604 58.9578 162.959 59.8492 162.96H140.096C140.988 162.959 141.842 162.604 142.473 161.974C143.103 161.344 143.458 160.489 143.459 159.597V50.6588C143.458 49.7673 143.103 48.9127 142.473 48.2824C141.842 47.652 140.988 47.2975 140.096 47.2964H59.8492Z" fill="#3F3D56"/>
<path d="M124.561 75.1419H101.854C101.378 75.1419 100.921 74.9526 100.584 74.6157C100.247 74.2788 100.058 73.8219 100.058 73.3455C100.058 72.869 100.247 72.4121 100.584 72.0752C100.921 71.7383 101.378 71.5491 101.854 71.5491H124.561C125.038 71.5491 125.495 71.7383 125.831 72.0752C126.168 72.4121 126.358 72.869 126.358 73.3455C126.358 73.8219 126.168 74.2788 125.831 74.6157C125.495 74.9526 125.038 75.1419 124.561 75.1419Z" fill="#0E71BA"/>
<path d="M131.971 81.2046H101.854C101.378 81.2046 100.921 81.0153 100.584 80.6785C100.247 80.3416 100.058 79.8846 100.058 79.4082C100.058 78.9318 100.247 78.4749 100.584 78.138C100.921 77.8011 101.378 77.6118 101.854 77.6118H131.971C132.448 77.6118 132.905 77.8011 133.242 78.138C133.578 78.4749 133.768 78.9318 133.768 79.4082C133.768 79.8846 133.578 80.3416 133.242 80.6785C132.905 81.0153 132.448 81.2046 131.971 81.2046Z" fill="#0E71BA"/>
<path d="M124.528 104.458H67.9736C67.4972 104.458 67.0403 104.269 66.7034 103.932C66.3665 103.595 66.1772 103.138 66.1772 102.662C66.1772 102.185 66.3665 101.728 66.7034 101.391C67.0403 101.054 67.4972 100.865 67.9736 100.865H124.528C125.004 100.865 125.461 101.054 125.798 101.391C126.135 101.728 126.324 102.185 126.324 102.662C126.324 103.138 126.135 103.595 125.798 103.932C125.461 104.269 125.004 104.458 124.528 104.458Z" fill="#CCCCCC"/>
<path d="M131.938 110.521H67.9736C67.4972 110.521 67.0403 110.332 66.7034 109.995C66.3665 109.658 66.1772 109.201 66.1772 108.725C66.1772 108.248 66.3665 107.791 66.7034 107.454C67.0403 107.117 67.4972 106.928 67.9736 106.928H131.938C132.415 106.928 132.871 107.117 133.208 107.454C133.545 107.791 133.735 108.248 133.735 108.725C133.735 109.201 133.545 109.658 133.208 109.995C132.871 110.332 132.415 110.521 131.938 110.521Z" fill="#CCCCCC"/>
<path d="M124.528 124.456H67.9739C67.4978 124.455 67.0415 124.265 66.705 123.929C66.3686 123.592 66.1797 123.135 66.1797 122.659C66.1797 122.183 66.3686 121.727 66.705 121.39C67.0415 121.053 67.4978 120.863 67.9739 120.863H124.528C125.005 120.863 125.462 121.052 125.798 121.389C126.135 121.726 126.325 122.183 126.325 122.659C126.325 123.136 126.135 123.593 125.798 123.929C125.462 124.266 125.005 124.456 124.528 124.456Z" fill="#CCCCCC"/>
<path d="M131.938 130.518H67.9739C67.4978 130.518 67.0415 130.328 66.705 129.991C66.3686 129.655 66.1797 129.198 66.1797 128.722C66.1797 128.246 66.3686 127.789 66.705 127.452C67.0415 127.116 67.4978 126.926 67.9739 126.926H131.938C132.415 126.926 132.872 127.115 133.209 127.452C133.545 127.789 133.735 128.245 133.735 128.722C133.735 129.198 133.545 129.655 133.209 129.992C132.872 130.329 132.415 130.518 131.938 130.518Z" fill="#CCCCCC"/>
<path d="M124.528 144.453H67.9736C67.4972 144.453 67.0403 144.264 66.7034 143.927C66.3665 143.59 66.1772 143.133 66.1772 142.657C66.1772 142.18 66.3665 141.723 66.7034 141.387C67.0403 141.05 67.4972 140.86 67.9736 140.86H124.528C125.004 140.86 125.461 141.05 125.798 141.387C126.135 141.723 126.324 142.18 126.324 142.657C126.324 143.133 126.135 143.59 125.798 143.927C125.461 144.264 125.004 144.453 124.528 144.453Z" fill="#CCCCCC"/>
<path d="M131.938 150.516H67.9736C67.4972 150.516 67.0403 150.327 66.7034 149.99C66.3665 149.653 66.1772 149.196 66.1772 148.719C66.1772 148.243 66.3665 147.786 66.7034 147.449C67.0403 147.112 67.4972 146.923 67.9736 146.923H131.938C132.415 146.923 132.871 147.112 133.208 147.449C133.545 147.786 133.735 148.243 133.735 148.719C133.735 149.196 133.545 149.653 133.208 149.99C132.871 150.327 132.415 150.516 131.938 150.516Z" fill="#CCCCCC"/>
<path d="M139.165 138.602C136.839 138.599 134.535 139.055 132.385 139.943C130.236 140.832 128.282 142.135 126.637 143.779C124.991 145.422 123.686 147.374 122.795 149.523C121.904 151.672 121.446 153.975 121.446 156.301C121.446 158.627 121.904 160.93 122.795 163.078C123.686 165.227 124.991 167.179 126.637 168.823C128.282 170.467 130.236 171.77 132.385 172.658C134.535 173.547 136.839 174.002 139.165 174H139.165C143.853 173.992 148.347 172.123 151.66 168.805C154.972 165.487 156.832 160.99 156.832 156.301C156.832 151.612 154.972 147.115 151.66 143.797C148.347 140.478 143.853 138.61 139.165 138.602Z" fill="#0E71BA"/>
<path d="M137.486 163.652C137.02 163.652 136.566 163.502 136.193 163.222L136.17 163.205L131.303 159.481C130.848 159.132 130.551 158.617 130.476 158.048C130.401 157.48 130.555 156.905 130.904 156.45C131.253 155.995 131.768 155.697 132.336 155.622C132.905 155.546 133.48 155.7 133.935 156.048L137.088 158.466L144.537 148.747C144.71 148.521 144.926 148.332 145.171 148.19C145.417 148.048 145.689 147.956 145.97 147.919C146.252 147.882 146.538 147.9 146.812 147.974C147.086 148.047 147.343 148.174 147.569 148.346L147.569 148.346L147.569 148.347L147.523 148.411L147.571 148.347C148.025 148.696 148.323 149.212 148.398 149.78C148.473 150.348 148.319 150.923 147.97 151.379L139.208 162.805C139.005 163.069 138.745 163.282 138.446 163.428C138.148 163.574 137.82 163.65 137.488 163.649L137.486 163.652Z" fill="white"/>
</g>
<defs>
<clipPath id="clip0_20_72">
<rect width="192.324" height="174" fill="white"/>
</clipPath>
</defs>
</svg>
