<svg width="255" height="82" viewBox="0 0 255 82" fill="none" xmlns="http://www.w3.org/2000/svg">
<g clip-path="url(#clip0_20_213)">
<path d="M248.095 73.4517H238.723C238.512 73.4512 238.303 73.4968 238.111 73.5852C237.919 73.6737 237.749 73.8028 237.612 73.9637C237.266 73.9004 236.911 73.9197 236.574 74.02C236.237 74.1204 235.929 74.2989 235.675 74.541C235.421 74.7831 235.228 75.0818 235.112 75.4126C234.996 75.7434 234.961 76.0969 235.008 76.444C235.056 76.7912 235.186 77.1221 235.387 77.4097C235.588 77.6972 235.854 77.9331 236.164 78.0981C236.474 78.2631 236.819 78.3524 237.17 78.3587C237.522 78.365 237.87 78.2881 238.186 78.1344L238.963 80.6527C239.055 80.9511 239.241 81.2123 239.492 81.3978C239.744 81.5833 240.049 81.6834 240.363 81.6833H246.456C246.769 81.6833 247.074 81.5832 247.326 81.3977C247.578 81.2122 247.763 80.9511 247.855 80.6527L249.495 75.3411C249.562 75.1227 249.577 74.8916 249.539 74.6664C249.5 74.4411 249.409 74.2281 249.273 74.0443C249.137 73.8605 248.959 73.7112 248.755 73.6082C248.55 73.5053 248.324 73.4517 248.095 73.4517ZM237.217 77.7258C236.796 77.7258 236.392 77.559 236.094 77.2621C235.796 76.9653 235.629 76.5626 235.629 76.1428C235.629 75.7229 235.796 75.3203 236.094 75.0234C236.392 74.7266 236.796 74.5598 237.217 74.5598C237.246 74.5598 237.273 74.5668 237.301 74.5683C237.238 74.8231 237.246 75.0903 237.324 75.3411L237.994 77.5144C237.758 77.6512 237.49 77.7241 237.217 77.7258Z" fill="#F0F0F0"/>
<path d="M19.77 66.803H10.3979C10.1865 66.8025 9.97754 66.8481 9.78564 66.9365C9.59374 67.025 9.42353 67.1542 9.28694 67.315C8.94126 67.2517 8.58545 67.271 8.2487 67.3714C7.91196 67.4717 7.60388 67.6502 7.34976 67.8923C7.09565 68.1344 6.90273 68.4331 6.78686 68.7639C6.67099 69.0947 6.63546 69.4482 6.68319 69.7954C6.73092 70.1425 6.86055 70.4734 7.06143 70.761C7.26232 71.0485 7.52874 71.2844 7.83882 71.4494C8.1489 71.6144 8.49379 71.7037 8.8452 71.71C9.19661 71.7163 9.54451 71.6394 9.86035 71.4857L10.9552 80.6526C11.0473 80.9511 11.2329 81.2122 11.4849 81.3977C11.7368 81.5832 12.0417 81.6833 12.3549 81.6833H18.4482C18.7614 81.6833 19.0663 81.5832 19.3182 81.3977C19.5701 81.2122 19.7557 80.9511 19.8478 80.6526L21.1697 68.6924C21.237 68.474 21.2521 68.2429 21.2136 68.0177C21.1751 67.7925 21.0841 67.5794 20.9479 67.3956C20.8118 67.2118 20.6343 67.0625 20.4297 66.9595C20.2251 66.8566 19.9991 66.803 19.77 66.803ZM8.89154 71.0771C8.47043 71.0771 8.06657 70.9103 7.7688 70.6135C7.47103 70.3166 7.30375 69.9139 7.30375 69.4941C7.30375 69.0743 7.47103 68.6716 7.7688 68.3747C8.06657 68.0779 8.47043 67.9111 8.89154 67.9111C8.92054 67.9111 8.94752 67.9181 8.9762 67.9196C8.91305 68.1744 8.92072 68.4416 8.99838 68.6924L9.669 70.8658C9.43275 71.0026 9.16474 71.0754 8.89154 71.0771Z" fill="#F0F0F0"/>
<path d="M130.49 59.2047C130.49 58.7037 130.341 58.2141 130.061 57.7975C129.782 57.381 129.386 57.0564 128.921 56.8647C128.457 56.673 127.946 56.6228 127.454 56.7205C126.961 56.8183 126.508 57.0595 126.153 57.4137C125.797 57.7679 125.556 58.2192 125.458 58.7106C125.359 59.2019 125.41 59.7111 125.602 60.174C125.794 60.6368 126.12 61.0323 126.538 61.3106C126.956 61.589 127.447 61.7375 127.949 61.7375C127.981 61.7375 128.011 61.7339 128.043 61.7328C128.671 63.7686 129.007 65.8829 129.04 68.0126C129.064 69.0743 129.003 70.1362 128.858 71.1883C128.747 71.9348 128.541 72.7912 127.797 73.1399C127.243 73.4 127.726 74.2191 128.278 73.9601C129.117 73.5668 129.524 72.6853 129.707 71.8238C129.916 70.7131 130.012 69.5843 129.994 68.4544C130.004 66.1055 129.66 63.7685 128.973 61.5216C129.424 61.3237 129.808 60.9992 130.077 60.5879C130.346 60.1765 130.49 59.6959 130.49 59.2047Z" fill="#E6E6E6"/>
<path d="M129.714 74.4672C129.714 74.4672 126.307 66.1076 136.526 59.8379L129.714 74.4672Z" fill="#E6E6E6"/>
<path d="M129.531 74.315C129.531 74.315 128.491 68.3567 120.449 68.4078L129.531 74.315Z" fill="#E6E6E6"/>
<path d="M135.23 81.6326H121.263C120.995 81.6326 120.733 81.5575 120.506 81.4158C120.279 81.2741 120.096 81.0716 119.979 80.8314L116.938 74.5997C116.832 74.3826 116.783 74.1422 116.796 73.9011C116.809 73.66 116.883 73.4261 117.011 73.2214C117.14 73.0167 117.318 72.8479 117.53 72.7309C117.742 72.6139 117.98 72.5525 118.222 72.5525H138.27C138.512 72.5525 138.751 72.6139 138.963 72.7309C139.174 72.8479 139.353 73.0167 139.481 73.2214C139.61 73.4261 139.684 73.66 139.697 73.9011C139.71 74.1422 139.661 74.3826 139.555 74.5997L136.514 80.8314C136.397 81.0716 136.214 81.2741 135.987 81.4158C135.76 81.5574 135.497 81.6326 135.23 81.6326Z" fill="#F0F0F0"/>
<path d="M254.682 81.9999H0.317559C0.233337 81.9999 0.152565 81.9665 0.0930107 81.9072C0.0334568 81.8478 0 81.7673 0 81.6833C0 81.5993 0.0334568 81.5188 0.0930107 81.4594C0.152565 81.4001 0.233337 81.3667 0.317559 81.3667H254.682C254.767 81.3667 254.847 81.4001 254.907 81.4594C254.967 81.5188 255 81.5993 255 81.6833C255 81.7673 254.967 81.8478 254.907 81.9072C254.847 81.9665 254.767 81.9999 254.682 81.9999Z" fill="#3F3D56"/>
<path d="M53.0562 63.614L46.8844 40.3485L46.1699 37.6627L46.84 37.0425L58.3426 31.3611L74.7795 31.7692L84.4291 36.7082L84.4812 40.3485L84.9575 73.1456L86.8826 81.1959H51.5776L54.3188 68.3747L53.0562 63.614Z" fill="#0E71BA"/>
<path d="M93.6575 81.1958H84.4568L81.9165 62.909L82.5814 40.3485L82.6731 37.2793L84.4294 36.708C85.7531 37.6719 86.8475 38.9149 87.6344 40.3485C88.7632 42.3073 89.7008 45.1144 89.4677 48.8885C89.4677 48.8885 89.6761 53.3452 89.4776 56.313C89.3412 58.341 91.7151 71.1596 93.6575 81.1958Z" fill="#0E71BA"/>
<path d="M53.0885 63.3815L53.0562 63.6139L50.6152 81.1959H40.0352C40.8835 71.2338 41.8808 58.7789 41.7468 56.783C41.5484 53.8176 41.7567 49.3584 41.7567 49.3584C41.5037 45.2702 42.6275 42.3222 43.8752 40.3486C44.503 39.3453 45.2762 38.4402 46.1698 37.6627C46.3681 37.4892 46.5768 37.3282 46.795 37.1804L48.5513 37.7493L49.0103 40.3486L53.0885 63.3815Z" fill="#0E71BA"/>
<path d="M54.3081 16.0727C54.3081 18.3194 54.9764 20.5157 56.2283 22.3837C57.4803 24.2518 59.2598 25.7078 61.3417 26.5675C63.4237 27.4273 65.7146 27.6523 67.9248 27.214C70.135 26.7757 72.1652 25.6938 73.7587 24.1051C75.3521 22.5165 76.4373 20.4924 76.8769 18.2888C77.3166 16.0853 77.0909 13.8013 76.2286 11.7256C75.3662 9.64992 73.9058 7.8758 72.0321 6.6276C70.1584 5.37939 67.9555 4.71317 65.702 4.71317C62.6877 4.70567 59.7939 5.89229 57.6571 8.012C55.5203 10.1317 54.3157 13.0109 54.3081 16.0161C54.3081 16.035 54.3081 16.0538 54.3081 16.0727Z" fill="#FFB7B7"/>
<path d="M102.095 79.3842C102.095 80.0326 101.837 80.6545 101.377 81.1129C100.917 81.5714 100.294 81.829 99.6432 81.829H34.0493C33.399 81.829 32.7753 81.5714 32.3154 81.1129C31.8555 80.6544 31.5972 80.0326 31.5972 79.3842C31.5972 78.7358 31.8555 78.114 32.3154 77.6555C32.7752 77.197 33.399 76.9395 34.0493 76.9395H34.7773C34.7357 76.7938 34.714 76.6433 34.7129 76.4918V43.1049C34.7129 42.5418 34.9373 42.0018 35.3367 41.6036C35.7361 41.2054 36.2777 40.9817 36.8426 40.9817H96.85C97.4148 40.9817 97.9565 41.2054 98.3558 41.6036C98.7552 42.0017 98.9796 42.5418 98.9796 43.1049V76.4918C98.9797 76.6433 98.958 76.7941 98.9151 76.9395H99.6432C99.9652 76.9395 100.284 77.0027 100.582 77.1256C100.879 77.2484 101.149 77.4285 101.377 77.6555C101.605 77.8825 101.785 78.152 101.909 78.4487C102.032 78.7453 102.095 79.0632 102.095 79.3842Z" fill="#3F3D56"/>
<path d="M68.1166 60.0503C67.367 60.0503 66.6341 59.8287 66.0108 59.4134C65.3874 58.9982 64.9016 58.408 64.6147 57.7174C64.3278 57.0269 64.2528 56.2671 64.399 55.534C64.5453 54.801 64.9062 54.1276 65.4363 53.5991C65.9664 53.0706 66.6418 52.7106 67.3771 52.5648C68.1124 52.419 68.8745 52.4938 69.5671 52.7798C70.2598 53.0659 70.8518 53.5502 71.2683 54.1717C71.6848 54.7931 71.9071 55.5237 71.9071 56.2712C71.906 57.2731 71.5063 58.2337 70.7957 58.9422C70.0851 59.6506 69.1216 60.0492 68.1166 60.0503ZM68.1166 53.1254C67.4926 53.1254 66.8825 53.3099 66.3636 53.6556C65.8447 54.0012 65.4403 54.4926 65.2015 55.0674C64.9626 55.6422 64.9002 56.2748 65.0219 56.885C65.1437 57.4952 65.4442 58.0558 65.8855 58.4957C66.3268 58.9357 66.889 59.2353 67.5011 59.3567C68.1132 59.478 68.7476 59.4157 69.3242 59.1776C69.9008 58.9395 70.3936 58.5363 70.7403 58.0189C71.087 57.5016 71.272 56.8934 71.272 56.2712C71.271 55.4371 70.9383 54.6375 70.3467 54.0478C69.7552 53.4581 68.9532 53.1263 68.1166 53.1254Z" fill="white"/>
<path d="M66.8465 58.4672C68.7645 58.4672 70.3194 56.917 70.3194 55.0047C70.3194 53.0924 68.7645 51.5422 66.8465 51.5422C64.9284 51.5422 63.3735 53.0924 63.3735 55.0047C63.3735 56.917 64.9284 58.4672 66.8465 58.4672Z" fill="white"/>
<path d="M173.387 25.8604V19.1544C173.387 15.124 174.993 11.2586 177.852 8.40859C180.71 5.55862 184.587 3.95752 188.63 3.95752C192.673 3.95752 196.55 5.55862 199.408 8.40859C202.267 11.2586 203.873 15.124 203.873 19.1544V25.8604C203.872 26.7686 203.51 27.6392 202.865 28.2813C202.221 28.9235 201.348 29.2847 200.437 29.2857H179.834L178.151 25.7198V29.2857H176.823C175.912 29.2847 175.039 28.9235 174.395 28.2813C173.751 27.6392 173.388 26.7686 173.387 25.8604Z" fill="#2F2E41"/>
<path d="M199.747 47.3247L200.403 54.4174L200.702 57.64L201.178 62.7713L201.238 63.4331L201.625 67.6005L201.635 67.6461C201.879 68.4257 202.369 69.106 203.032 69.5859C203.695 70.0658 204.495 70.3198 205.315 70.31L222.996 70.0055L227.987 69.9192C228.083 70.063 228.177 70.1925 228.271 70.3076C228.709 70.8382 229.254 71.2711 229.871 71.578C230.488 71.8849 231.163 72.0591 231.852 72.0892C232.544 72.1209 233.235 72.0049 233.879 71.7489C234.523 71.4929 235.104 71.1029 235.584 70.6049C235.681 70.5066 235.774 70.4035 235.861 70.2956C236.515 69.4937 236.898 68.5062 236.955 67.4744C237.012 66.4425 236.74 65.4191 236.179 64.5505C235.805 63.9689 235.31 63.4737 234.729 63.0982C234.147 62.7227 233.492 62.4755 232.807 62.3733C232.126 62.2691 231.43 62.309 230.765 62.4904C230.101 62.6717 229.482 62.9905 228.949 63.4259C228.78 63.5648 228.621 63.7164 228.475 63.8791L222.996 63.083L209.199 61.0809L208.609 53.1441C208.607 53.1082 208.605 53.0722 208.602 53.0338L208.126 46.6293C208.047 45.5636 207.562 44.5683 206.771 43.8468C205.98 43.1253 204.943 42.732 203.871 42.7473C203.519 42.7508 203.168 42.8 202.828 42.8935C202.447 42.9964 202.082 43.1531 201.745 43.3587C201.073 43.7663 200.529 44.3544 200.175 45.0557C199.822 45.757 199.673 46.5433 199.747 47.3247Z" fill="#9E616A"/>
<path d="M189.247 29.6536C194.767 29.6536 199.241 25.1926 199.241 19.6896C199.241 14.1866 194.767 9.72559 189.247 9.72559C183.727 9.72559 179.253 14.1866 179.253 19.6896C179.253 25.1926 183.727 29.6536 189.247 29.6536Z" fill="#9E616A"/>
<path d="M202.573 36.2963L204.39 35.6924C204.39 35.6924 208.024 37.2021 208.024 39.9195C208.024 42.637 208.63 53.5068 208.63 53.5068L200.453 54.4127L202.573 36.2963Z" fill="#0E71BA"/>
<path d="M163.914 81.5125H171.12L173.585 60.9177L174.477 53.4797L174.6 52.4535L175.259 46.9481C175.294 46.2569 175.14 45.5691 174.811 44.9591C174.483 44.3491 173.994 43.8401 173.397 43.4871C172.8 43.1341 172.117 42.9505 171.423 42.9562C170.729 42.9619 170.049 43.1566 169.458 43.5193C169.309 43.6107 169.167 43.7125 169.032 43.8238C168.619 44.1628 168.282 44.5853 168.044 45.0635C167.806 45.5417 167.672 46.0647 167.652 46.5981L167.002 52.6525L163.914 81.5125Z" fill="#9E616A"/>
<path d="M174.721 53.5067L166.544 52.6008C166.544 52.6008 167.15 41.731 167.15 39.0135C167.15 36.2961 170.784 34.7864 170.784 34.7864L172.601 35.3903L174.721 53.5067Z" fill="#0E71BA"/>
<path d="M172.069 81.5125H206.252C205.169 77.3854 203.691 73.3714 201.839 69.5258C201.538 68.9144 201.36 68.5883 201.36 68.5883C201.36 68.5883 186.824 68.303 177.738 71.926C177.159 72.1755 176.639 72.5449 176.213 73.0098C174.64 74.6308 173.265 77.6736 172.069 81.5125Z" fill="#2F2E41"/>
<path d="M179.253 32.9748C179.253 32.9748 178.964 32.8205 196.211 33.4469L203.43 35.4289L204.389 35.6923C204.389 35.6923 203.481 53.8087 201.058 57.13C198.635 60.4514 199.241 62.263 199.847 62.5649C200.452 62.8669 201.967 62.263 201.058 63.7727C200.149 65.2824 198.938 64.3766 200.149 65.2824C201.361 66.1882 201.966 69.5096 201.966 69.5096L175.315 73.1328C175.315 73.1328 174.407 61.3572 171.984 55.3184C169.561 49.2796 168.956 46.8641 168.956 46.8641L170.773 34.7865L179.253 32.9748Z" fill="#0E71BA"/>
<path d="M178.468 14.0888C178.468 11.4858 179.505 8.98943 181.352 7.14882C183.198 5.30821 185.702 4.27417 188.313 4.27417C190.923 4.27417 193.427 5.30821 195.274 7.14882C197.12 8.98943 198.157 11.4858 198.157 14.0888V18.5213H178.468V14.0888Z" fill="#2F2E41"/>
<path d="M221.815 79.0213V79.8965C221.815 80.4091 221.61 80.9006 221.247 81.263C220.883 81.6254 220.39 81.829 219.876 81.8292H155.404C154.89 81.829 154.397 81.6254 154.034 81.263C153.67 80.9006 153.466 80.4091 153.466 79.8965V79.0213C153.466 78.5088 153.67 78.0173 154.034 77.6549C154.397 77.2925 154.89 77.0888 155.404 77.0887H156.549C156.509 76.9475 156.488 76.8015 156.487 76.6547V43.848C156.487 43.4182 156.658 43.006 156.963 42.7021C157.268 42.3982 157.681 42.2273 158.112 42.2271H217.168C217.599 42.2273 218.013 42.3982 218.318 42.7021C218.622 43.006 218.794 43.4182 218.794 43.848V76.6547C218.794 76.8016 218.773 76.9478 218.732 77.0887H219.876C220.39 77.0888 220.883 77.2925 221.247 77.6549C221.61 78.0173 221.815 78.5088 221.815 79.0213Z" fill="#3F3D56"/>
<path d="M188.911 60.7624C188.182 60.7624 187.47 60.5469 186.864 60.1433C186.258 59.7396 185.785 59.1659 185.507 58.4946C185.228 57.8234 185.155 57.0847 185.297 56.3722C185.439 55.6596 185.79 55.005 186.305 54.4912C186.821 53.9775 187.477 53.6276 188.192 53.4859C188.907 53.3441 189.647 53.4169 190.321 53.6949C190.994 53.973 191.57 54.4438 191.974 55.0479C192.379 55.652 192.595 56.3623 192.595 57.0888C192.594 58.0628 192.206 58.9965 191.515 59.6852C190.824 60.3739 189.888 60.7613 188.911 60.7624ZM188.911 54.0485C188.308 54.0485 187.718 54.2268 187.216 54.5609C186.715 54.895 186.324 55.3698 186.093 55.9253C185.863 56.4809 185.802 57.0922 185.92 57.682C186.037 58.2717 186.328 58.8135 186.754 59.2387C187.181 59.6639 187.724 59.9534 188.316 60.0707C188.907 60.1881 189.52 60.1278 190.078 59.8977C190.635 59.6676 191.111 59.2779 191.446 58.7779C191.781 58.278 191.96 57.6901 191.96 57.0888C191.959 56.2828 191.638 55.51 191.066 54.94C190.494 54.37 189.719 54.0494 188.911 54.0485V54.0485Z" fill="white"/>
<path d="M187.64 59.1794C189.5 59.1794 191.008 57.6765 191.008 55.8225C191.008 53.9685 189.5 52.4656 187.64 52.4656C185.781 52.4656 184.273 53.9685 184.273 55.8225C184.273 57.6765 185.781 59.1794 187.64 59.1794Z" fill="white"/>
<path d="M78.6082 6.63671C77.6897 5.92961 76.9431 5.02503 76.4239 3.99034C76.2385 3.59707 75.9828 3.24076 75.6694 2.93885L73.515 4.59074L74.8316 2.30447C71.4595 0.272334 64.8748 1.35163 64.8748 1.35163C58.025 -2.28489 55.5098 2.25452 54.6329 5.13331C54.2856 6.17511 53.673 7.10923 52.8552 7.84435C51.1655 9.45063 53.8263 12.575 53.8263 12.575V12.7958L54.4614 17.0965C54.4614 17.0965 55.0966 14.2471 56.7726 12.2448C57.8293 10.9824 59.5491 10.2318 60.3479 10.2473C70.657 10.4479 72.6087 10.8549 72.6087 10.8549C72.6087 10.8549 74.354 11.7897 75.1248 12.1824C77.6157 13.4513 77.0081 18.0463 77.0081 18.0463L78.8695 9.89097C79.2991 7.91407 79.0605 7.00704 78.6082 6.63671Z" fill="#2F2E41"/>
</g>
<defs>
<clipPath id="clip0_20_213">
<rect width="255" height="82" fill="white"/>
</clipPath>
</defs>
</svg>
